<svg width="200" height="201" viewBox="0 0 200 201" fill="none" xmlns="http://www.w3.org/2000/svg">
<path d="M55.84 0.939972C57.63 1.56997 59.08 2.57997 59.72 4.45997C60.85 7.79997 58.37 11.16 54.7 11.22C51.87 11.27 49.04 11.22 46.21 11.23C41.43 11.23 36.65 11.16 31.87 11.26C19.91 11.5 10.54 20.85 10.34 32.8C10.22 40.31 10.3 47.82 10.31 55.34C10.31 57.33 9.62 58.97 7.92 60.08C5.16 61.88 1.57 60.67 0.34 57.57C0.23 57.3 0.11 57.04 0 56.78C0 48.19 0 39.6 0 31.01C0.06 30.76 0.14 30.51 0.17 30.26C1.49 16.08 11.55 4.71997 25.48 1.70997C26.99 1.37997 28.54 1.18997 30.07 0.939972H55.84Z" fill="#000000"/>
<path d="M169.86 0.939972C171.46 1.19997 173.07 1.39997 174.65 1.73997C188.4 4.68997 198.65 16.41 199.76 30.43C199.86 31.73 199.91 33.03 199.92 34.33C199.93 41.46 199.94 48.58 199.92 55.71C199.92 58.24 198.19 60.33 195.79 60.83C193.48 61.31 191.08 60.11 190.13 57.85C189.79 57.04 189.65 56.09 189.65 55.2C189.61 48.04 189.63 40.88 189.63 33.73C189.63 26.96 187.24 21.21 182.15 16.7C178.4 13.37 173.96 11.45 168.95 11.34C161.15 11.16 153.33 11.26 145.53 11.26C143.53 11.26 141.89 10.57 140.79 8.86997C138.99 6.10997 140.2 2.51997 143.3 1.28997C143.57 1.17997 143.83 1.06997 144.09 0.949972C152.68 0.949972 161.27 0.949972 169.86 0.949972V0.939972Z" fill="#000000"/>
<path d="M0 145.03C0.63 143.24 1.64 141.79 3.53 141.15C6.87 140.02 10.24 142.5 10.29 146.18C10.34 149.69 10.29 153.21 10.3 156.72C10.3 160.82 10.24 164.92 10.33 169.02C10.58 180.98 19.93 190.34 31.9 190.54C39.41 190.66 46.93 190.57 54.45 190.58C57.02 190.58 59 191.94 59.73 194.13C60.81 197.41 58.38 200.83 54.88 200.86C49.74 200.9 44.6 200.89 39.46 200.86C36.14 200.84 32.81 200.93 29.51 200.68C15.48 199.62 3.77 189.34 0.81 175.59C0.47 174.01 0.27 172.39 0.01 170.8V145.03H0Z" fill="#000000"/>
<path d="M157.28 190.56C160.89 190.56 164.51 190.63 168.12 190.55C180.02 190.29 189.39 180.95 189.6 169.04C189.73 161.53 189.63 154.01 189.64 146.49C189.64 143.93 190.9 142.01 193.05 141.21C196.19 140.05 199.86 142.32 199.89 145.67C199.95 154.23 200.2 162.8 199.7 171.33C198.9 184.89 189.33 196.2 176.21 199.65C173.44 200.38 170.51 200.76 167.65 200.82C160.14 200.98 152.62 200.89 145.1 200.87C142.64 200.87 140.57 199.13 140.07 196.76C139.58 194.43 140.82 191.97 143.11 191.04C143.87 190.73 144.75 190.61 145.58 190.6C149.48 190.56 153.39 190.58 157.29 190.58V190.56H157.28Z" fill="#000000"/>
<path d="M101.64 182.27C86.68 182.28 75.04 177.93 65.16 168.93C62.77 166.75 62.45 163.57 64.44 161.29C66.4 159.03 69.72 158.87 72.1 161.03C76.79 165.3 82.05 168.64 88.23 170.17C102.71 173.78 115.97 171.53 127.39 161.38C129.01 159.94 130.73 159.11 132.89 159.69C136.86 160.75 138.17 165.7 135.17 168.53C129.68 173.72 123.36 177.55 116.14 179.85C110.89 181.52 105.51 182.29 101.64 182.27V182.27Z" fill="#000000"/>
<path d="M110.5 115.15C110.5 121.07 110.52 126.99 110.5 132.91C110.48 137.74 108.83 141.81 104.79 144.7C102.44 146.38 99.77 147.12 96.91 147.19C95.29 147.23 93.64 147.29 92.04 147.08C89.38 146.72 87.48 144.19 87.7 141.57C87.92 138.9 90.12 136.78 92.79 136.71C93.93 136.68 95.07 136.71 96.21 136.7C98.92 136.67 99.97 135.62 99.97 132.88C99.97 120.81 99.97 108.74 99.97 96.67C99.97 94.62 100.75 92.99 102.48 91.9C104.18 90.83 105.98 90.77 107.76 91.77C109.59 92.8 110.5 94.41 110.5 96.5C110.52 102.71 110.5 108.93 110.5 115.14V115.15Z" fill="#000000"/>
<path d="M54.36 103.56C54.36 101.28 54.36 99.01 54.36 96.73C54.36 94.79 55.02 93.15 56.62 92C59.52 89.93 63.52 91.65 64.23 95.25C64.26 95.41 64.3 95.57 64.3 95.73C64.3 100.99 64.42 106.26 64.24 111.52C64.15 114.22 61.81 116.1 59.29 116.07C56.79 116.04 54.61 114.05 54.46 111.36C54.31 108.77 54.43 106.16 54.43 103.56H54.37H54.36Z" fill="#000000"/>
<path d="M136.83 103.53C136.83 101.03 136.77 98.52 136.85 96.02C136.92 93.71 138.64 91.68 140.75 91.22C143.77 90.57 146.69 92.84 146.77 96.14C146.88 101.11 146.87 106.09 146.77 111.07C146.71 113.97 144.38 116.11 141.69 116.07C139.02 116.02 136.9 113.78 136.83 110.85C136.78 108.41 136.82 105.97 136.82 103.53H136.84H136.83Z" fill="#000000"/>
</svg>
