<svg width="200" height="201" viewBox="0 0 200 201" fill="none" xmlns="http://www.w3.org/2000/svg">
<path d="M55.84 0.969971C57.63 1.59997 59.08 2.60997 59.72 4.48997C60.85 7.82997 58.37 11.19 54.7 11.25C51.87 11.3 49.04 11.25 46.21 11.26C41.43 11.26 36.65 11.19 31.87 11.29C19.91 11.53 10.54 20.88 10.34 32.83C10.22 40.34 10.3 47.85 10.31 55.37C10.31 57.36 9.62 59 7.92 60.11C5.16 61.91 1.57 60.7 0.34 57.6C0.23 57.33 0.11 57.07 0 56.81C0 48.22 0 39.63 0 31.04C0.06 30.79 0.14 30.54 0.17 30.29C1.49 16.11 11.55 4.74997 25.48 1.73997C26.99 1.40997 28.54 1.21997 30.07 0.969971H55.84Z" fill="#000000"/>
<path d="M169.86 0.969971C171.46 1.22997 173.07 1.42997 174.65 1.76997C188.4 4.71997 198.65 16.44 199.76 30.46C199.86 31.76 199.91 33.06 199.92 34.36C199.93 41.49 199.94 48.61 199.92 55.74C199.92 58.27 198.19 60.36 195.79 60.86C193.48 61.34 191.08 60.14 190.13 57.88C189.79 57.07 189.65 56.12 189.65 55.23C189.61 48.07 189.63 40.91 189.63 33.76C189.63 26.99 187.24 21.24 182.15 16.73C178.4 13.4 173.96 11.48 168.95 11.37C161.15 11.19 153.33 11.29 145.53 11.29C143.53 11.29 141.89 10.6 140.79 8.89997C138.99 6.13997 140.2 2.54997 143.3 1.31997C143.57 1.20997 143.83 1.09997 144.09 0.979971C152.68 0.979971 161.27 0.979971 169.86 0.979971V0.969971Z" fill="#000000"/>
<path d="M0 145.06C0.63 143.27 1.64 141.82 3.53 141.18C6.87 140.05 10.24 142.53 10.29 146.21C10.34 149.72 10.29 153.24 10.3 156.75C10.3 160.85 10.24 164.95 10.33 169.05C10.58 181.01 19.93 190.37 31.9 190.57C39.41 190.69 46.93 190.6 54.45 190.61C57.02 190.61 59 191.97 59.73 194.16C60.81 197.44 58.38 200.86 54.88 200.89C49.74 200.93 44.6 200.92 39.46 200.89C36.14 200.87 32.81 200.96 29.51 200.71C15.48 199.65 3.77 189.37 0.81 175.62C0.47 174.04 0.27 172.42 0.01 170.83V145.06H0Z" fill="#000000"/>
<path d="M157.28 190.59C160.89 190.59 164.51 190.66 168.12 190.58C180.02 190.32 189.39 180.98 189.6 169.07C189.73 161.56 189.63 154.04 189.64 146.52C189.64 143.96 190.9 142.04 193.05 141.24C196.19 140.08 199.86 142.35 199.89 145.7C199.95 154.26 200.2 162.83 199.7 171.36C198.9 184.92 189.33 196.23 176.21 199.68C173.44 200.41 170.51 200.79 167.65 200.85C160.14 201.01 152.62 200.92 145.1 200.9C142.64 200.9 140.57 199.16 140.07 196.79C139.58 194.46 140.82 192 143.11 191.07C143.87 190.76 144.75 190.64 145.58 190.63C149.48 190.59 153.39 190.61 157.29 190.61V190.59H157.28Z" fill="#000000"/>
<path d="M101.64 162.3C86.68 162.31 75.04 157.96 65.16 148.96C62.77 146.78 62.45 143.6 64.44 141.32C66.4 139.06 69.72 138.9 72.1 141.06C76.79 145.33 82.05 148.67 88.23 150.2C102.71 153.81 115.97 151.56 127.39 141.41C129.01 139.97 130.73 139.14 132.89 139.72C136.86 140.78 138.17 145.73 135.17 148.56C129.68 153.75 123.36 157.58 116.14 159.88C110.89 161.55 105.51 162.32 101.64 162.3Z" fill="#000000"/>
<path d="M110.5 95.18C110.5 101.1 110.52 107.02 110.5 112.94C110.48 117.77 108.83 121.84 104.79 124.73C102.44 126.41 99.77 127.15 96.91 127.22C95.29 127.26 93.64 127.32 92.04 127.11C89.38 126.75 87.48 124.22 87.7 121.6C87.92 118.93 90.12 116.81 92.79 116.74C93.93 116.71 95.07 116.74 96.21 116.73C98.92 116.7 99.97 115.65 99.97 112.91C99.97 100.84 99.97 88.77 99.97 76.7C99.97 74.65 100.75 73.02 102.48 71.93C104.18 70.86 105.98 70.8 107.76 71.8C109.59 72.83 110.5 74.44 110.5 76.53C110.52 82.74 110.5 88.96 110.5 95.17V95.18Z" fill="#000000"/>
<path d="M54.36 83.59C54.36 81.31 54.36 79.04 54.36 76.76C54.36 74.82 55.02 73.18 56.62 72.03C59.52 69.96 63.52 71.68 64.23 75.28C64.26 75.44 64.3 75.6 64.3 75.76C64.3 81.02 64.42 86.29 64.24 91.55C64.15 94.25 61.81 96.13 59.29 96.1C56.79 96.07 54.61 94.08 54.46 91.39C54.31 88.8 54.43 86.19 54.43 83.59H54.37H54.36Z" fill="#000000"/>
<path d="M136.83 83.56C136.83 81.06 136.77 78.55 136.85 76.05C136.92 73.74 138.64 71.71 140.75 71.25C143.77 70.6 146.69 72.87 146.77 76.17C146.88 81.14 146.87 86.12 146.77 91.1C146.71 94 144.38 96.14 141.69 96.1C139.02 96.05 136.9 93.81 136.83 90.88C136.78 88.44 136.82 86 136.82 83.56H136.84H136.83Z" fill="#000000"/>
</svg>
