<svg width="76" height="76" viewBox="0 0 76 76" fill="none" xmlns="http://www.w3.org/2000/svg">
<path d="M38.7338 52.9066C30.3945 52.9066 23.6342 46.1462 23.6342 37.807C23.6342 29.4677 30.3945 22.7073 38.7338 22.7073C47.073 22.7073 53.8334 29.4677 53.8334 37.807C53.8334 46.1462 47.073 52.9066 38.7338 52.9066Z" stroke="#000" stroke-width="2.2" stroke-linecap="round" stroke-linejoin="round"/>
<path d="M45 40.6667C45 40.6667 43 43.3334 39 43.3334C35 43.3334 33 40.6667 33 40.6667" stroke="#000" stroke-width="2.1" stroke-linecap="round" stroke-linejoin="round"/>
<path d="M43.6668 33.3333C43.2987 33.3333 43.0001 33.0348 43.0001 32.6667C43.0001 32.2985 43.2987 32 43.6668 32C44.0349 32 44.3334 32.2985 44.3334 32.6667C44.3334 33.0348 44.0349 33.3333 43.6668 33.3333Z" fill="#000" stroke="#000" stroke-width="2.1" stroke-linecap="round" stroke-linejoin="round"/>
<path d="M34.3334 33.3333C33.9652 33.3333 33.6667 33.0348 33.6667 32.6667C33.6667 32.2985 33.9652 32 34.3334 32C34.7016 32 35.0001 32.2985 35.0001 32.6667C35.0001 33.0348 34.7016 33.3333 34.3334 33.3333Z" fill="#000" stroke="#000" stroke-width="2.1" stroke-linecap="round" stroke-linejoin="round"/>
</svg>
