<svg width="200" height="200" viewBox="0 0 200 200" fill="none" xmlns="http://www.w3.org/2000/svg">
<path d="M55.84 0C57.63 0.63 59.08 1.64 59.72 3.52C60.85 6.86 58.37 10.22 54.7 10.28C51.87 10.33 49.04 10.28 46.21 10.29C41.43 10.29 36.65 10.22 31.87 10.32C19.91 10.56 10.54 19.91 10.34 31.86C10.22 39.37 10.3 46.88 10.31 54.4C10.31 56.39 9.62 58.03 7.92 59.14C5.16 60.94 1.57 59.73 0.34 56.63C0.23 56.36 0.11 56.1 0 55.84C0 47.25 0 38.66 0 30.07C0.06 29.82 0.14 29.57 0.17 29.32C1.49 15.14 11.55 3.78 25.48 0.77C26.99 0.44 28.54 0.25 30.07 0H55.84Z" fill="#000000"/>
<path d="M169.86 0C171.46 0.26 173.07 0.46 174.65 0.8C188.4 3.75 198.65 15.47 199.76 29.49C199.86 30.79 199.91 32.09 199.92 33.39C199.93 40.52 199.94 47.64 199.92 54.77C199.92 57.3 198.19 59.39 195.79 59.89C193.48 60.37 191.08 59.17 190.13 56.91C189.79 56.1 189.65 55.15 189.65 54.26C189.61 47.1 189.63 39.94 189.63 32.79C189.63 26.02 187.24 20.27 182.15 15.76C178.4 12.43 173.96 10.51 168.95 10.4C161.15 10.22 153.33 10.32 145.53 10.32C143.53 10.32 141.89 9.63 140.79 7.93C138.99 5.17 140.2 1.58 143.3 0.35C143.57 0.24 143.83 0.13 144.09 0.01C152.68 0.01 161.27 0.01 169.86 0.01V0Z" fill="#000000"/>
<path d="M0 144.09C0.63 142.3 1.64 140.85 3.53 140.21C6.87 139.08 10.24 141.56 10.29 145.24C10.34 148.75 10.29 152.27 10.3 155.78C10.3 159.88 10.24 163.98 10.33 168.08C10.58 180.04 19.93 189.4 31.9 189.6C39.41 189.72 46.93 189.63 54.45 189.64C57.02 189.64 59 191 59.73 193.19C60.81 196.47 58.38 199.89 54.88 199.92C49.74 199.96 44.6 199.95 39.46 199.92C36.14 199.9 32.81 199.99 29.51 199.74C15.48 198.68 3.77 188.4 0.81 174.65C0.47 173.07 0.27 171.45 0.01 169.86V144.09H0Z" fill="#000000"/>
<path d="M157.28 189.62C160.89 189.62 164.51 189.69 168.12 189.61C180.02 189.35 189.39 180.01 189.6 168.1C189.73 160.59 189.63 153.07 189.64 145.55C189.64 142.99 190.9 141.07 193.05 140.27C196.19 139.11 199.86 141.38 199.89 144.73C199.95 153.29 200.2 161.86 199.7 170.39C198.9 183.95 189.33 195.26 176.21 198.71C173.44 199.44 170.51 199.82 167.65 199.88C160.14 200.04 152.62 199.95 145.1 199.93C142.64 199.93 140.57 198.19 140.07 195.82C139.58 193.49 140.82 191.03 143.11 190.1C143.87 189.79 144.75 189.67 145.58 189.66C149.48 189.62 153.39 189.64 157.29 189.64V189.62H157.28Z" fill="#000000"/>
<path d="M81.64 161.33C66.68 161.34 55.04 156.99 45.16 147.99C42.77 145.81 42.45 142.63 44.44 140.35C46.4 138.09 49.72 137.93 52.1 140.09C56.79 144.36 62.05 147.7 68.23 149.23C82.71 152.84 95.97 150.59 107.39 140.44C109.01 139 110.73 138.17 112.89 138.75C116.86 139.81 118.17 144.76 115.17 147.59C109.68 152.78 103.36 156.61 96.14 158.91C90.89 160.58 85.51 161.35 81.64 161.33Z" fill="#000000"/>
<path d="M80.5 94.21C80.5 100.13 80.52 106.05 80.5 111.97C80.48 116.8 78.83 120.87 74.79 123.76C72.44 125.44 69.77 126.18 66.91 126.25C65.29 126.29 63.64 126.35 62.04 126.14C59.38 125.78 57.48 123.25 57.7 120.63C57.92 117.96 60.12 115.84 62.79 115.77C63.93 115.74 65.07 115.77 66.21 115.76C68.92 115.73 69.97 114.68 69.97 111.94C69.97 99.87 69.97 87.8 69.97 75.73C69.97 73.68 70.75 72.05 72.48 70.96C74.18 69.89 75.98 69.83 77.76 70.83C79.59 71.86 80.5 73.47 80.5 75.56C80.52 81.77 80.5 87.99 80.5 94.2V94.21Z" fill="#000000"/>
<path d="M34.36 82.62C34.36 80.34 34.36 78.07 34.36 75.79C34.36 73.85 35.02 72.21 36.62 71.06C39.52 68.99 43.52 70.71 44.23 74.31C44.26 74.47 44.3 74.63 44.3 74.79C44.3 80.05 44.42 85.32 44.24 90.58C44.15 93.28 41.81 95.16 39.29 95.13C36.79 95.1 34.61 93.11 34.46 90.42C34.31 87.83 34.43 85.22 34.43 82.62H34.37H34.36Z" fill="#000000"/>
<path d="M116.83 82.59C116.83 80.09 116.77 77.58 116.85 75.08C116.92 72.77 118.64 70.74 120.75 70.28C123.77 69.63 126.69 71.9 126.77 75.2C126.88 80.17 126.87 85.15 126.77 90.13C126.71 93.03 124.38 95.17 121.69 95.13C119.02 95.08 116.9 92.84 116.83 89.91C116.78 87.47 116.82 85.03 116.82 82.59H116.84H116.83Z" fill="#000000"/>
</svg>
