<?xml version="1.0" encoding="utf-8"?>
<!-- Generator: Adobe Illustrator 25.0.0, SVG Export Plug-In . SVG Version: 6.00 Build 0)  -->
<svg version="1.1" id="Layer_1" xmlns="http://www.w3.org/2000/svg" xmlns:xlink="http://www.w3.org/1999/xlink" x="0px" y="0px"
	 viewBox="0 0 500 500" style="enable-background:new 0 0 500 500;" xml:space="preserve">
<style type="text/css">
	.st0{fill:url(#SVGID_1_);}
	.st1{fill:url(#SVGID_2_);}
	.st2{fill:url(#SVGID_3_);}
	.st3{fill:url(#SVGID_4_);}
	.st4{fill:url(#SVGID_5_);}
	.st5{fill:url(#SVGID_6_);}
	.st6{fill:url(#SVGID_7_);}
	.st7{fill:url(#SVGID_8_);}
	.st8{fill:url(#SVGID_9_);}
	.st9{fill:url(#SVGID_10_);}
	.st10{fill:url(#SVGID_11_);}
	.st11{fill:url(#SVGID_12_);}
	.st12{fill:url(#SVGID_13_);}
	.st13{fill:url(#SVGID_14_);}
	.st14{fill:url(#SVGID_15_);}
	.st15{fill:url(#SVGID_16_);}
</style>
<linearGradient id="SVGID_1_" gradientUnits="userSpaceOnUse" x1="240.3953" y1="-247.609" x2="344.8341" y2="243.737" gradientTransform="matrix(1 0 0 -1 -250 252)">
	<stop  offset="0" style="stop-color:#6BEBA4"/>
	<stop  offset="1" style="stop-color:#1DB262"/>
</linearGradient>
<path class="st0" d="M31.5,326.9c6.9-3.8,29.2-20.6,29.2-75.8c0-15.1,1.8-30.2,5.3-44.9c1.3-5.4-2-10.8-7.4-12.1
	c-5.4-1.3-10.8,2-12.1,7.4l0,0c-3.9,16.3-5.9,32.9-5.9,49.7c0,43-15.2,55.7-18.4,57.8c-4.7,1.7-9.4,3.5-13.8,5.6
	c1.7,6.6,3.7,13,6,19.3c5-2.4,10.2-4.5,15.4-6.3C30.4,327.4,31,327.2,31.5,326.9z"/>
<linearGradient id="SVGID_2_" gradientUnits="userSpaceOnUse" x1="307.9154" y1="-253.8355" x2="418.1163" y2="264.6188" gradientTransform="matrix(1 0 0 -1 -250 252)">
	<stop  offset="0" style="stop-color:#6BEBA4"/>
	<stop  offset="1" style="stop-color:#1DB262"/>
</linearGradient>
<path class="st1" d="M145,278c0.6-5.5-3.4-10.5-8.9-11.1s-10.5,3.4-11.1,8.9c-9.2,86.6-65.9,107.2-68,108c-4.9,1.6-9.7,3.6-14.3,6
	c3.8,5.6,7.9,11.1,12.1,16.4c2.8-1.3,5.6-2.4,8.5-3.3C66.3,401.9,134.5,377.1,145,278z"/>
<linearGradient id="SVGID_3_" gradientUnits="userSpaceOnUse" x1="340.5291" y1="-253.0794" x2="455.6849" y2="288.6861" gradientTransform="matrix(1 0 0 -1 -250 252)">
	<stop  offset="0" style="stop-color:#6BEBA4"/>
	<stop  offset="1" style="stop-color:#1DB262"/>
</linearGradient>
<path class="st2" d="M155.3,377.9c3-4.6,1.7-10.9-2.9-13.9c-4.6-3-10.9-1.7-13.9,2.9l0,0c-27.8,42.3-64.9,54.7-66.4,55.2
	c-0.9,0.3-1.7,0.6-2.6,0.9c5.1,5.3,10.5,10.5,16.1,15.4C99.8,432.2,130.7,415.2,155.3,377.9z"/>
<linearGradient id="SVGID_4_" gradientUnits="userSpaceOnUse" x1="307.924" y1="-264.0298" x2="418.8937" y2="258.0418" gradientTransform="matrix(1 0 0 -1 -250 252)">
	<stop  offset="0" style="stop-color:#6BEBA4"/>
	<stop  offset="1" style="stop-color:#1DB262"/>
</linearGradient>
<path class="st3" d="M47.9,364.8c9.3-3.8,55.7-26.9,55.7-113.7c-0.2-66,42.8-124.5,105.9-143.9c5.3-1.7,8.2-7.3,6.6-12.6
	s-7.3-8.2-12.6-6.6c-71.5,22-120.2,88.2-120,163.1c0,74.2-37.4,92.7-42.9,95c-6.2,2.1-12.3,4.6-18.1,7.7c2.8,6.1,5.8,12.1,9.1,17.9
	c5-2.6,10.3-4.8,15.7-6.6C47.5,365,47.7,364.9,47.9,364.8z"/>
<linearGradient id="SVGID_5_" gradientUnits="userSpaceOnUse" x1="390.1094" y1="-249.2733" x2="499.5385" y2="265.55" gradientTransform="matrix(1 0 0 -1 -250 252)">
	<stop  offset="0" style="stop-color:#6BEBA4"/>
	<stop  offset="1" style="stop-color:#1DB262"/>
</linearGradient>
<path class="st4" d="M217.3,347.5c5.3-15.7,9.1-31.8,11.5-48.2c0.8-5.5-3-10.6-8.5-11.4s-10.6,3-11.4,8.5
	c-2.2,15.2-5.8,30.1-10.6,44.6c-23,67.4-69.1,99.2-94.2,112c6.1,4.4,12.5,8.5,19,12.4C152.1,448.2,195,413,217.3,347.5z"/>
<linearGradient id="SVGID_6_" gradientUnits="userSpaceOnUse" x1="433.3028" y1="-246.8644" x2="539.7239" y2="253.8074" gradientTransform="matrix(1 0 0 -1 -250 252)">
	<stop  offset="0" style="stop-color:#6BEBA4"/>
	<stop  offset="1" style="stop-color:#1DB262"/>
</linearGradient>
<path class="st5" d="M272.3,251.1c0-5.5-4.5-10-10-10c-5.5,0-10,4.5-10,10c0,83.5-25.7,150.5-76.4,199.2
	c-10,9.6-20.8,18.3-32.4,25.9c7.1,3.4,14.5,6.4,22,9.1c8.2-6.1,16.1-12.7,23.5-19.8C227,429.3,272.3,362.8,272.3,251.1z"/>
<linearGradient id="SVGID_7_" gradientUnits="userSpaceOnUse" x1="475.3117" y1="-244.9302" x2="585.2695" y2="272.3804" gradientTransform="matrix(1 0 0 -1 -250 252)">
	<stop  offset="0" style="stop-color:#6BEBA4"/>
	<stop  offset="1" style="stop-color:#1DB262"/>
</linearGradient>
<path class="st6" d="M278.1,386.1c-5.1-2.2-11,0.1-13.3,5.1c-14.6,33.4-35.7,63.7-62.1,88.8c-4.7,4.5-9.3,8.5-13.9,12.4
	c8.2,2.1,16.5,3.7,24.8,4.9c1-0.9,2-1.8,2.9-2.8c28.3-27,51-59.4,66.6-95.3C285.5,394.3,283.2,388.4,278.1,386.1
	C278.2,386.1,278.2,386.1,278.1,386.1z"/>
<linearGradient id="SVGID_8_" gradientUnits="userSpaceOnUse" x1="420.2404" y1="-262.7967" x2="530.5063" y2="255.9635" gradientTransform="matrix(1 0 0 -1 -250 252)">
	<stop  offset="0" style="stop-color:#6BEBA4"/>
	<stop  offset="1" style="stop-color:#1DB262"/>
</linearGradient>
<path class="st7" d="M286.9,186.3c5.1,2.2,11-0.2,13.2-5.3s-0.2-11-5.3-13.2c-46-19.4-99.1,2.2-118.5,48.2
	c-4.7,11.1-7.1,23-7.1,35.1c0,24.6-3,47.5-9,68c-1.5,5.3,1.5,10.9,6.9,12.5c5.3,1.5,10.9-1.5,12.5-6.9l0,0
	c6.5-22.3,9.8-47.1,9.8-73.5c0-38.8,31.5-70.3,70.3-70.3C269,180.8,278.3,182.7,286.9,186.3z"/>
<linearGradient id="SVGID_9_" gradientUnits="userSpaceOnUse" x1="468.8744" y1="-222.4285" x2="563.7584" y2="223.9654" gradientTransform="matrix(1 0 0 -1 -250 252)">
	<stop  offset="0" style="stop-color:#6BEBA4"/>
	<stop  offset="1" style="stop-color:#1DB262"/>
</linearGradient>
<path class="st8" d="M289.4,352.6c0.8,0.2,1.6,0.3,2.4,0.3c4.6,0,8.7-3.1,9.8-7.6c7.4-30.8,11.1-62.4,10.9-94.1
	c0-27.7-22.5-50.2-50.2-50.2c-27.7,0-50.2,22.5-50.2,50.2c0,0,0,0,0,0c0,5.5,4.5,10,10,10c5.5,0,10-4.5,10-10
	c0-16.6,13.5-30.1,30.1-30.2c16.6,0,30.1,13.5,30.2,30.1c0,0,0,0,0,0c0.2,30.1-3.3,60.1-10.3,89.3
	C280.8,345.8,284,351.3,289.4,352.6C289.4,352.6,289.4,352.6,289.4,352.6z"/>
<linearGradient id="SVGID_10_" gradientUnits="userSpaceOnUse" x1="522.0937" y1="-248.9745" x2="626.7975" y2="243.6181" gradientTransform="matrix(1 0 0 -1 -250 252)">
	<stop  offset="0" style="stop-color:#6BEBA4"/>
	<stop  offset="1" style="stop-color:#1DB262"/>
</linearGradient>
<path class="st9" d="M340.7,211.1c-2.5-5-8.5-7-13.5-4.5c-5,2.5-7,8.5-4.5,13.5l0,0c4.8,9.7,7.3,20.3,7.3,31.1
	c0,124-48.3,202.6-92.6,248.5c4.2,0.2,8.4,0.3,12.7,0.3c4.9,0,9.8-0.1,14.6-0.4c43-50.1,85.4-129.6,85.4-248.4
	C350,237.2,346.8,223.5,340.7,211.1z"/>
<linearGradient id="SVGID_11_" gradientUnits="userSpaceOnUse" x1="565.8952" y1="-247.4597" x2="676.5747" y2="273.2465" gradientTransform="matrix(1 0 0 -1 -250 252)">
	<stop  offset="0" style="stop-color:#6BEBA4"/>
	<stop  offset="1" style="stop-color:#1DB262"/>
</linearGradient>
<path class="st10" d="M356.2,391.8c-5.2-1.8-11,0.9-12.8,6.1c-12.5,35.5-30.5,68.9-53.3,98.8c9.9-1.6,19.8-3.8,29.4-6.6
	c17.8-26.6,32.2-55.3,42.9-85.5C364.2,399.5,361.5,393.7,356.2,391.8C356.3,391.9,356.3,391.9,356.2,391.8z"/>
<linearGradient id="SVGID_12_" gradientUnits="userSpaceOnUse" x1="469.378" y1="-191.6842" x2="557.025" y2="220.6625" gradientTransform="matrix(1 0 0 -1 -250 252)">
	<stop  offset="0" style="stop-color:#6BEBA4"/>
	<stop  offset="1" style="stop-color:#1DB262"/>
</linearGradient>
<path class="st11" d="M372.2,324c0.4,0.1,0.9,0.1,1.3,0.1c5.1,0,9.3-3.7,10-8.8c2.7-21.3,4-42.7,4-64.2c0-72-58.6-130.6-130.6-130.6
	c-62.6,0-116.4,44.5-128.3,106c-1.1,5.4,2.5,10.7,8,11.8c5.4,1.1,10.7-2.5,11.8-7.9c11.6-59.9,69.5-99.1,129.4-87.6
	c52,10,89.5,55.5,89.6,108.4c0,20.6-1.3,41.2-3.8,61.6C362.8,318.2,366.7,323.3,372.2,324C372.2,324,372.2,324,372.2,324z"/>
<linearGradient id="SVGID_13_" gradientUnits="userSpaceOnUse" x1="537.1804" y1="-229.2149" x2="631.8269" y2="216.0622" gradientTransform="matrix(1 0 0 -1 -250 252)">
	<stop  offset="0" style="stop-color:#6BEBA4"/>
	<stop  offset="1" style="stop-color:#1DB262"/>
</linearGradient>
<path class="st12" d="M383.4,139.6c-26.4-30.6-62.9-50.9-102.8-57.2c-5.5-0.9-10.6,2.9-11.5,8.4c-0.9,5.5,2.9,10.6,8.4,11.5
	c72.6,11.3,127.4,75.3,127.4,148.9c0,98-25.5,173.2-58.4,229.6c10.8-4.5,21.3-9.8,31.4-15.8C405.3,409.4,425,339,425,251.1
	C425,210.2,410.2,170.6,383.4,139.6z"/>
<linearGradient id="SVGID_14_" gradientUnits="userSpaceOnUse" x1="406.2931" y1="-347.2441" x2="532.3996" y2="246.0402" gradientTransform="matrix(1 0 0 -1 -250 252)">
	<stop  offset="0" style="stop-color:#6BEBA4"/>
	<stop  offset="1" style="stop-color:#1DB262"/>
</linearGradient>
<path class="st13" d="M412.2,148.2c1.9,2.9,5,4.6,8.5,4.6c1.9,0,3.8-0.5,5.4-1.6c4.7-3,6-9.2,3-13.8c0,0,0,0,0-0.1
	C366.4,39.3,236,10.7,138,73.4c-23,14.7-42.9,33.7-58.6,56c-3.2,4.5-2.1,10.8,2.4,14c4.5,3.2,10.8,2.1,14-2.4
	C156.4,55,275.4,34.4,361.5,95.1C381.7,109.4,398.9,127.4,412.2,148.2L412.2,148.2z"/>
<linearGradient id="SVGID_15_" gradientUnits="userSpaceOnUse" x1="457.3415" y1="-198.6533" x2="549.6591" y2="235.6664" gradientTransform="matrix(1 0 0 -1 -250 252)">
	<stop  offset="0" style="stop-color:#6BEBA4"/>
	<stop  offset="1" style="stop-color:#1DB262"/>
</linearGradient>
<path class="st14" d="M255.4,0.1C253.6,0,251.8,0,250,0h-0.5C111.6,0.3,0,112.1,0,250c0,14.6,1.3,29.2,3.8,43.6
	c0.8-0.3,1.5-0.7,2.2-0.9c2.2-0.9,4.1-2.5,5.2-4.7c3-5.8,6.6-16.8,6.6-36.8c0-127.4,103.6-231,231-231s231,103.6,231,231
	c0.2,41.1-4,82-12.4,122.2c21.3-37.4,32.5-79.8,32.6-122.8V250C500,113.7,391,2.9,255.4,0.1z"/>
<linearGradient id="SVGID_16_" gradientUnits="userSpaceOnUse" x1="656.6526" y1="-244.824" x2="759.5554" y2="239.2956" gradientTransform="matrix(1 0 0 -1 -250 252)">
	<stop  offset="0" style="stop-color:#6BEBA4"/>
	<stop  offset="1" style="stop-color:#1DB262"/>
</linearGradient>
<path class="st15" d="M452.5,241.1c-5.6,0-10,4.5-10,10c0,77-14.6,141.2-36.3,194.1c11.8-9.4,22.7-19.9,32.7-31.4
	c14.6-46.8,23.7-100.8,23.7-162.8C462.5,245.6,458.1,241.1,452.5,241.1C452.5,241.1,452.5,241.1,452.5,241.1z"/>
</svg>
