<svg id="Layer_1" data-name="Layer 1" xmlns="http://www.w3.org/2000/svg" xmlns:xlink="http://www.w3.org/1999/xlink" viewBox="0 0 500 500"><defs><style>.cls-1{fill:url(#linear-gradient);}.cls-2{fill:url(#linear-gradient-2);}.cls-3{fill:url(#linear-gradient-3);}.cls-4{fill:url(#linear-gradient-4);}.cls-5{fill:url(#linear-gradient-5);}.cls-6{fill:url(#linear-gradient-6);}.cls-7{fill:url(#linear-gradient-7);}.cls-8{fill:url(#linear-gradient-8);}.cls-9{fill:url(#linear-gradient-9);}.cls-10{fill:url(#linear-gradient-10);}.cls-11{fill:url(#linear-gradient-11);}.cls-12{fill:url(#linear-gradient-12);}.cls-13{fill:url(#linear-gradient-13);}.cls-14{fill:url(#linear-gradient-14);}.cls-15{fill:url(#linear-gradient-15);}.cls-16{fill:url(#linear-gradient-16);}</style><linearGradient id="linear-gradient" x1="287.39" y1="744.29" x2="287.39" y2="262.11" gradientUnits="userSpaceOnUse"><stop offset="0" stop-color="#ff928e"/><stop offset="1" stop-color="#7d91f4"/></linearGradient><linearGradient id="linear-gradient-2" x1="343.92" y1="744.29" x2="343.92" y2="262.11" xlink:href="#linear-gradient"/><linearGradient id="linear-gradient-3" x1="363.25" y1="744.29" x2="363.25" y2="262.11" xlink:href="#linear-gradient"/><linearGradient id="linear-gradient-4" x1="369.52" y1="744.29" x2="369.52" y2="262.11" xlink:href="#linear-gradient"/><linearGradient id="linear-gradient-5" x1="416.46" y1="744.29" x2="416.46" y2="262.11" xlink:href="#linear-gradient"/><linearGradient id="linear-gradient-6" x1="457.85" y1="744.29" x2="457.85" y2="262.11" xlink:href="#linear-gradient"/><linearGradient id="linear-gradient-7" x1="486.48" y1="744.29" x2="486.48" y2="262.11" xlink:href="#linear-gradient"/><linearGradient id="linear-gradient-8" x1="480.36" y1="744.29" x2="480.36" y2="262.11" xlink:href="#linear-gradient"/><linearGradient id="linear-gradient-9" x1="512.28" y1="744.29" x2="512.28" y2="262.11" xlink:href="#linear-gradient"/><linearGradient id="linear-gradient-10" x1="543.66" y1="744.29" x2="543.66" y2="262.11" xlink:href="#linear-gradient"/><linearGradient id="linear-gradient-11" x1="576.49" y1="744.29" x2="576.49" y2="262.11" xlink:href="#linear-gradient"/><linearGradient id="linear-gradient-12" x1="508" y1="744.29" x2="508" y2="262.11" xlink:href="#linear-gradient"/><linearGradient id="linear-gradient-13" x1="597.01" y1="744.29" x2="597.01" y2="262.11" xlink:href="#linear-gradient"/><linearGradient id="linear-gradient-14" x1="504.11" y1="744.29" x2="504.11" y2="262.11" xlink:href="#linear-gradient"/><linearGradient id="linear-gradient-15" x1="500" y1="744.29" x2="500" y2="262.11" xlink:href="#linear-gradient"/><linearGradient id="linear-gradient-16" x1="684.31" y1="744.29" x2="684.31" y2="262.11" xlink:href="#linear-gradient"/></defs><path class="cls-1" d="M281.5,576.88c6.86-3.83,29.22-20.63,29.22-75.75a191.73,191.73,0,0,1,5.33-44.93,10,10,0,1,0-19.52-4.74,211.56,211.56,0,0,0-5.9,49.67c0,43-15.18,55.68-18.37,57.85-4.74,1.69-9.35,3.54-13.82,5.63q2.61,9.84,6,19.34a152.72,152.72,0,0,1,15.43-6.35A10,10,0,0,0,281.5,576.88Z" transform="translate(-250 -250)"/><path class="cls-2" d="M395,528a10,10,0,0,0-20-2.12c-9.24,86.6-65.89,107.25-68,108a88.19,88.19,0,0,0-14.28,6c3.8,5.63,7.85,11.12,12.13,16.42a67.76,67.76,0,0,1,8.49-3.34C316.27,651.91,384.46,627.1,395,528Z" transform="translate(-250 -250)"/><path class="cls-3" d="M405.3,627.91a10,10,0,0,0-16.79-11c-27.83,42.27-64.9,54.73-66.38,55.21-.88.27-1.74.59-2.6.91,5.09,5.33,10.48,10.47,16.08,15.37C349.78,682.15,380.69,665.25,405.3,627.91Z" transform="translate(-250 -250)"/><path class="cls-4" d="M297.89,614.81c9.3-3.75,55.69-26.87,55.69-113.68a150.07,150.07,0,0,1,105.91-143.9,10,10,0,0,0-6-19.18,170.07,170.07,0,0,0-120,163.08c0,74.17-37.37,92.65-42.86,95a125.73,125.73,0,0,0-18.13,7.66q4.14,9.16,9.08,17.9a106.5,106.5,0,0,1,15.7-6.59C297.49,615,297.68,614.91,297.89,614.81Z" transform="translate(-250 -250)"/><path class="cls-5" d="M467.28,597.48a272.88,272.88,0,0,0,11.49-48.19,10,10,0,1,0-19.87-2.9A253.13,253.13,0,0,1,448.26,591c-23,67.4-69.13,99.17-94.23,112,6.11,4.42,12.46,8.54,19,12.37C402.11,698.17,445,663,467.28,597.48Z" transform="translate(-250 -250)"/><path class="cls-6" d="M522.33,501.13a10,10,0,1,0-20.09,0c0,83.52-25.74,150.51-76.45,199.15a229.64,229.64,0,0,1-32.41,25.91q10.72,5.1,22,9.13a254.92,254.92,0,0,0,23.52-19.82C477,679.34,522.33,612.77,522.33,501.13Z" transform="translate(-250 -250)"/><path class="cls-7" d="M528.14,636.1a10.07,10.07,0,0,0-13.26,5.12,274.91,274.91,0,0,1-62.12,88.85c-4.66,4.45-9.32,8.55-13.92,12.38a243.33,243.33,0,0,0,24.83,4.92c1-.91,1.95-1.82,2.94-2.75a294.58,294.58,0,0,0,66.64-95.28A10,10,0,0,0,528.14,636.1Z" transform="translate(-250 -250)"/><path class="cls-8" d="M536.92,436.33a10.05,10.05,0,0,0,7.85-18.51A90.44,90.44,0,0,0,419.2,501.13c0,24.59-3,47.46-9,68a10.05,10.05,0,1,0,19.31,5.6c6.46-22.31,9.75-47.06,9.75-73.55a70.38,70.38,0,0,1,70.31-70.32A69.62,69.62,0,0,1,536.92,436.33Z" transform="translate(-250 -250)"/><path class="cls-9" d="M539.44,602.62a9.46,9.46,0,0,0,2.41.29,10,10,0,0,0,9.75-7.63,394.83,394.83,0,0,0,10.9-94.15,50.22,50.22,0,1,0-100.44,0,10,10,0,0,0,20.09,0,30.13,30.13,0,1,1,60.26,0,375.26,375.26,0,0,1-10.31,89.33A10,10,0,0,0,539.44,602.62Z" transform="translate(-250 -250)"/><path class="cls-10" d="M590.65,461.08a10,10,0,0,0-18,8.92,69.35,69.35,0,0,1,7.26,31.13c0,124-48.29,202.58-92.59,248.55,4.2.21,8.41.32,12.67.32,4.9,0,9.77-.13,14.59-.43C557.6,699.51,600,620,600,501.13A89.72,89.72,0,0,0,590.65,461.08Z" transform="translate(-250 -250)"/><path class="cls-11" d="M606.24,641.84a10.08,10.08,0,0,0-12.83,6.1,360.12,360.12,0,0,1-53.35,98.85,239.5,239.5,0,0,0,29.43-6.59,382.74,382.74,0,0,0,42.86-85.53A10,10,0,0,0,606.24,641.84Z" transform="translate(-250 -250)"/><path class="cls-12" d="M622.23,574a9.31,9.31,0,0,0,1.29.08,10.06,10.06,0,0,0,10-8.76,505.35,505.35,0,0,0,4-64.2c0-72-58.58-130.59-130.58-130.59A130.7,130.7,0,0,0,378.68,476.48a10,10,0,1,0,19.71,3.81,110.5,110.5,0,0,1,219,20.84,487.07,487.07,0,0,1-3.85,61.63A10,10,0,0,0,622.23,574Z" transform="translate(-250 -250)"/><path class="cls-13" d="M633.43,389.56A170.82,170.82,0,0,0,530.6,332.4a10,10,0,1,0-3.08,19.84c72.62,11.31,127.39,75.3,127.39,148.89,0,98-25.47,173.25-58.44,229.58a246,246,0,0,0,31.39-15.85C655.31,659.38,675,589,675,501.13A170.68,170.68,0,0,0,633.43,389.56Z" transform="translate(-250 -250)"/><path class="cls-14" d="M662.22,398.24a10.1,10.1,0,0,0,8.47,4.6,9.89,9.89,0,0,0,5.44-1.6,10,10,0,0,0,3-13.88,210.8,210.8,0,0,0-349.79-7.93,10,10,0,0,0,16.39,11.63,190.69,190.69,0,0,1,316.49,7.18Z" transform="translate(-250 -250)"/><path class="cls-15" d="M505.37,250.08c-1.79-.05-3.59-.08-5.38-.08h-.54C361.64,250.29,250,362.1,250,500a249.11,249.11,0,0,0,3.8,43.56c.75-.33,1.5-.65,2.25-.94a10,10,0,0,0,5.17-4.66c3-5.76,6.65-16.83,6.65-36.83,0-127.4,103.63-231,231-231s231,103.64,231,231a585.17,585.17,0,0,1-12.43,122.25A249,249,0,0,0,750,500.56V500C750,363.71,641,252.92,505.37,250.08Z" transform="translate(-250 -250)"/><path class="cls-16" d="M702.46,491.08a10.05,10.05,0,0,0-10.05,10.05c0,77-14.57,141.21-36.29,194.14a250.78,250.78,0,0,0,32.65-31.36c14.62-46.83,23.73-100.83,23.73-162.78A10,10,0,0,0,702.46,491.08Z" transform="translate(-250 -250)"/></svg>