<svg width="46" height="46" viewBox="0 0 46 46" fill="none" xmlns="http://www.w3.org/2000/svg">
<path d="M37.5796 29.1598C36.5723 31.5419 34.9969 33.641 32.9909 35.2735C30.985 36.9061 28.6097 38.0224 26.0726 38.5248C23.5356 39.0273 20.9141 38.9007 18.4373 38.156C15.9606 37.4112 13.7039 36.0711 11.8647 34.2528C10.0255 32.4345 8.65974 30.1933 7.88679 27.7252C7.11384 25.2571 6.95726 22.6372 7.43073 20.0946C7.90421 17.552 8.99332 15.1641 10.6029 13.1397C12.2124 11.1152 14.2933 9.51586 16.6638 8.48145" stroke="#fff" stroke-width="2" stroke-linecap="round" stroke-linejoin="round"/>
<path d="M38.8274 23.0003C38.8274 20.9211 38.4178 18.8622 37.6221 16.9412C36.8264 15.0202 35.6601 13.2747 34.1899 11.8045C32.7196 10.3342 30.9742 9.16793 29.0532 8.37223C27.1322 7.57653 25.0733 7.16699 22.994 7.16699V23.0003H38.8274Z" stroke="#fff" stroke-width="2" stroke-linecap="round" stroke-linejoin="round"/>
</svg>
