<svg width="76" height="76" viewBox="0 0 76 76" fill="none" xmlns="http://www.w3.org/2000/svg">
<path d="M27.175 42.0917V34.455C27.175 31.417 28.3287 28.5033 30.3821 26.3551C32.4356 24.2069 35.2207 23 38.1247 23C41.0287 23 43.8138 24.2069 45.8673 26.3551C47.9207 28.5033 49.0743 31.417 49.0743 34.455V42.0917" stroke="#000" stroke-width="2.2" stroke-linecap="round" stroke-linejoin="round"/>
<path d="M27.1767 41.0859C27.1767 41.7667 26.9164 42.4196 26.4531 42.901C25.9897 43.3824 25.3613 43.6528 24.706 43.6528H23.4707C22.8154 43.6528 22.187 43.3824 21.7237 42.901C21.2603 42.4196 21 41.7667 21 41.0859V37.2355C21 36.5547 21.2603 35.9018 21.7237 35.4204C22.187 34.939 22.8154 34.6685 23.4707 34.6685H27.1767V41.0859Z" stroke="#000" stroke-width="2.2" stroke-linecap="round" stroke-linejoin="round"/>
<path d="M49.0773 41.0859C49.0773 41.7667 49.3376 42.4196 49.801 42.901C50.2643 43.3824 50.8927 43.6528 51.548 43.6528H52.7833C53.4386 43.6528 54.067 43.3824 54.5304 42.901C54.9937 42.4196 55.254 41.7667 55.254 41.0859V37.2355C55.254 36.5547 54.9937 35.9018 54.5304 35.4204C54.067 34.939 53.4386 34.6685 52.7833 34.6685H49.0773V41.0859Z" stroke="#000" stroke-width="2.2" stroke-linecap="round" stroke-linejoin="round"/>
<path d="M48.901 41.8178V47.3112C48.901 49.2943 47.2933 50.902 45.3102 50.902H40.4657" stroke="#000" stroke-width="1.9" stroke-linecap="round"/>
</svg>
