<svg width="200" height="200" viewBox="0 0 200 200" fill="none" xmlns="http://www.w3.org/2000/svg">
<path d="M55.84 0C57.63 0.63 59.08 1.64 59.72 3.52C60.85 6.86 58.37 10.22 54.7 10.28C51.87 10.33 49.04 10.28 46.21 10.29C41.43 10.29 36.65 10.22 31.87 10.32C19.91 10.56 10.54 19.91 10.34 31.86C10.22 39.37 10.3 46.88 10.31 54.4C10.31 56.39 9.62 58.03 7.92 59.14C5.16 60.94 1.57 59.73 0.34 56.63C0.23 56.36 0.11 56.1 0 55.84C0 47.25 0 38.66 0 30.07C0.06 29.82 0.14 29.57 0.17 29.32C1.49 15.14 11.55 3.78 25.48 0.77C26.99 0.44 28.54 0.25 30.07 0H55.84Z" fill="#000000"/>
<path d="M169.86 0C171.46 0.26 173.07 0.46 174.65 0.8C188.4 3.75 198.65 15.47 199.76 29.49C199.86 30.79 199.91 32.09 199.92 33.39C199.93 40.52 199.94 47.64 199.92 54.77C199.92 57.3 198.19 59.39 195.79 59.89C193.48 60.37 191.08 59.17 190.13 56.91C189.79 56.1 189.65 55.15 189.65 54.26C189.61 47.1 189.63 39.94 189.63 32.79C189.63 26.02 187.24 20.27 182.15 15.76C178.4 12.43 173.96 10.51 168.95 10.4C161.15 10.22 153.33 10.32 145.53 10.32C143.53 10.32 141.89 9.63 140.79 7.93C138.99 5.17 140.2 1.58 143.3 0.35C143.57 0.24 143.83 0.13 144.09 0.01C152.68 0.01 161.27 0.01 169.86 0.01V0Z" fill="#000000"/>
<path d="M0 144.09C0.63 142.3 1.64 140.85 3.53 140.21C6.87 139.08 10.24 141.56 10.29 145.24C10.34 148.75 10.29 152.27 10.3 155.78C10.3 159.88 10.24 163.98 10.33 168.08C10.58 180.04 19.93 189.4 31.9 189.6C39.41 189.72 46.93 189.63 54.45 189.64C57.02 189.64 59 191 59.73 193.19C60.81 196.47 58.38 199.89 54.88 199.92C49.74 199.96 44.6 199.95 39.46 199.92C36.14 199.9 32.81 199.99 29.51 199.74C15.48 198.68 3.77 188.4 0.81 174.65C0.47 173.07 0.27 171.45 0.01 169.86V144.09H0Z" fill="#000000"/>
<path d="M157.28 189.62C160.89 189.62 164.51 189.69 168.12 189.61C180.02 189.35 189.39 180.01 189.6 168.1C189.73 160.59 189.63 153.07 189.64 145.55C189.64 142.99 190.9 141.07 193.05 140.27C196.19 139.11 199.86 141.38 199.89 144.73C199.95 153.29 200.2 161.86 199.7 170.39C198.9 183.95 189.33 195.26 176.21 198.71C173.44 199.44 170.51 199.82 167.65 199.88C160.14 200.04 152.62 199.95 145.1 199.93C142.64 199.93 140.57 198.19 140.07 195.82C139.58 193.49 140.82 191.03 143.11 190.1C143.87 189.79 144.75 189.67 145.58 189.66C149.48 189.62 153.39 189.64 157.29 189.64V189.62H157.28Z" fill="#000000"/>
<path d="M101.64 141.33C86.68 141.34 75.04 136.99 65.16 127.99C62.77 125.81 62.45 122.63 64.44 120.35C66.4 118.09 69.72 117.93 72.1 120.09C76.79 124.36 82.05 127.7 88.23 129.23C102.71 132.84 115.97 130.59 127.39 120.44C129.01 119 130.73 118.17 132.89 118.75C136.86 119.81 138.17 124.76 135.17 127.59C129.68 132.78 123.36 136.61 116.14 138.91C110.89 140.58 105.51 141.35 101.64 141.33Z" fill="#000000"/>
<path d="M110.5 64.21C110.5 70.13 110.52 76.05 110.5 81.97C110.48 86.8 108.83 90.87 104.79 93.76C102.44 95.44 99.77 96.18 96.91 96.25C95.29 96.29 93.64 96.35 92.04 96.14C89.38 95.78 87.48 93.25 87.7 90.63C87.92 87.96 90.12 85.84 92.79 85.77C93.93 85.74 95.07 85.77 96.21 85.76C98.92 85.73 99.97 84.68 99.97 81.94C99.97 69.87 99.97 57.8 99.97 45.73C99.97 43.68 100.75 42.05 102.48 40.96C104.18 39.89 105.98 39.83 107.76 40.83C109.59 41.86 110.5 43.47 110.5 45.56C110.52 51.77 110.5 57.99 110.5 64.2V64.21Z" fill="#000000"/>
<path d="M54.36 62.62C54.36 60.34 54.36 58.07 54.36 55.79C54.36 53.85 55.02 52.21 56.62 51.06C59.52 48.99 63.52 50.71 64.23 54.31C64.26 54.47 64.3 54.63 64.3 54.79C64.3 60.05 64.42 65.32 64.24 70.58C64.15 73.28 61.81 75.16 59.29 75.13C56.79 75.1 54.61 73.11 54.46 70.42C54.31 67.83 54.43 65.22 54.43 62.62H54.37H54.36Z" fill="#000000"/>
<path d="M136.83 62.59C136.83 60.09 136.77 57.58 136.85 55.08C136.92 52.77 138.64 50.74 140.75 50.28C143.77 49.63 146.69 51.9 146.77 55.2C146.88 60.17 146.87 65.15 146.77 70.13C146.71 73.03 144.38 75.17 141.69 75.13C139.02 75.08 136.9 72.84 136.83 69.91C136.78 67.47 136.82 65.03 136.82 62.59H136.84H136.83Z" fill="#000000"/>
</svg>
