<?xml version="1.0" encoding="utf-8"?>
<!-- Generator: Adobe Illustrator 25.0.0, SVG Export Plug-In . SVG Version: 6.00 Build 0)  -->
<svg version="1.1" id="Layer_1" xmlns:v="https://vecta.io/nano"
	 xmlns="http://www.w3.org/2000/svg" xmlns:xlink="http://www.w3.org/1999/xlink" x="0px" y="0px" viewBox="0 0 619.6 411.4"
	 style="enable-background:new 0 0 619.6 411.4;" xml:space="preserve">
<style type="text/css">
	.st0{fill:#DACC3E;}
	.st1{fill:#66D7D1;}
	.st2{fill:#FFFFFF;}
	.st3{fill:#FF8A5B;}
	.st4{fill:#6987F3;}
</style>
<g>
	<g>
		<rect x="197.6" y="193.5" class="st0" width="196.8" height="185.7"/>
	</g>
	<g>
		<rect x="197.6" y="193.5" class="st1" width="196.8" height="21.5"/>
	</g>
	<g>
		<path class="st2" d="M266.5,329.9c-5.3,0-10.5-1.5-14.7-4.6l1.4-1.9c9.4,7,24.5,5,32.9-4.4c7.5-8.3,9.7-21.4,5.6-33.1
			c-8.7,3.6-18.1,5.3-27.5,4.7c-7-0.5-16.6-2.4-22.8-9.3c-7-7.7-6.2-18.4-1-23.7c6.6-6.6,17.7-4.9,25.8-1.1
			c12.4,5.8,22.2,15.3,26.8,26.2c16.5-7.5,30-21.9,35.1-39.4l2.3,0.7c-5.2,18.2-19.3,33.2-36.5,40.9c4.4,12.5,2,26.6-6.1,35.6
			C282.5,326.7,274.4,329.9,266.5,329.9z M252.5,255.6c-3.9,0-7.5,1.1-10.2,3.8c-5.4,5.4-3.8,15.1,1,20.3c5.7,6.2,14.7,8.1,21.2,8.5
			c9,0.6,18.1-1.1,26.5-4.5c-4.4-10.4-13.7-19.4-25.6-25C261.4,256.9,256.8,255.6,252.5,255.6z"/>
	</g>
</g>
<g>
	<g>
		<rect x="359.6" y="139.1" class="st3" width="196.8" height="240.2"/>
	</g>
	<g>
		<rect x="359.6" y="139.1" class="st4" width="196.8" height="27.7"/>
	</g>
</g>
<g>
	<g>
		<path class="st3" d="M72.2,90.5c1.8,14.9,5.3,27.3,12.8,40.3c2.4,4.2,5.6,8.1,9.3,11.3l8.8-9.9l-4.3,13.4
			c6.9,4.6,15.1,7.1,23.3,6.1c2.4-14.7-1.8-30.3-11.2-41.9C101.6,98.3,87.1,91.1,72.2,90.5z"/>
	</g>
	<g>
		<path class="st4" d="M97.1,66.2l13.5,3.9l-13.2,1.8c0.1,1.3,0.2,2.6,0.4,3.8c1.5,9.9,4.8,19.7,11,27.5
			c6.2,7.8,17.3,14.1,27.2,14.5c4.3-14.7,2.7-31-4.3-44.6c-7-13.6-19.4-24.3-33.8-29.4C97.7,50.8,97,58.7,97.1,66.2z"/>
	</g>
	<g>
		<path d="M147.9,244l-2.4,0c-9.3-71.5-28.8-102.2-48.5-124.7l1.8-1.6c31.4,36,42,77.3,47.8,117.3c4.8-43.8-4-110.2-28.5-154.1
			l2.1-1.2C146.7,127,155.1,200.4,147.9,244z"/>
	</g>
	<g>
		<path d="M154.4,227.9c-2.3-38.1,7.1-77.3,26.3-110.3l2.1,1.2c-19,32.6-28.2,71.3-26,108.9L154.4,227.9z"/>
	</g>
	<g>
		<ellipse class="st4" cx="150.3" cy="303.2" rx="87.1" ry="76.1"/>
	</g>
	<g>
		
			<rect x="131.8" y="210.8" transform="matrix(-1 -1.224647e-16 1.224647e-16 -1 300.5432 454.9194)" class="st4" width="36.9" height="33.2"/>
	</g>
</g>
<g>
	<path class="st1" d="M346.5,105.9l-14.7-6.5l11.4-11.2L325.8,61l-15,5.8l0.1-16L279.4,44l-6.5,14.7l-11.2-11.4l-27.2,17.5l5.8,15
		l-16-0.1l-6.8,31.6l14.7,6.5l-11.4,11.2l17.5,27.2l15-5.8l-0.1,16l31.6,6.8l6.5-14.7l11.2,11.4l27.2-17.5l-5.8-15l16,0.1
		L346.5,105.9z M291.4,123.1c-8.1,5.2-18.9,2.9-24.1-5.2c-5.2-8.1-2.9-18.8,5.2-24.1c8.1-5.2,18.9-2.9,24.1,5.2
		C301.8,107.1,299.5,117.9,291.4,123.1z"/>
</g>
<g>
	<path d="M423.4,102c-7,0-13.7-2.4-19.2-6.9c-6.3-5.1-10.2-12.4-11-20.5c-0.8-8.1,1.6-16,6.7-22.3c5.1-6.3,12.4-10.2,20.5-11
		c16.7-1.7,31.6,10.5,33.3,27.2c0.8,8.1-1.6,16-6.7,22.3c-5.1,6.3-12.4,10.2-20.5,11C425.5,102,424.5,102,423.4,102z M423.5,43.7
		c-0.9,0-1.9,0-2.8,0.1c-7.4,0.7-14.1,4.3-18.9,10.1c-4.7,5.8-6.9,13.1-6.2,20.5l0,0c0.7,7.4,4.3,14.1,10.1,18.9
		c5.8,4.7,13.1,6.9,20.5,6.2c7.4-0.7,14.1-4.3,18.9-10.1c4.7-5.8,6.9-13.1,6.2-20.5C449.9,54.5,437.7,43.7,423.5,43.7z"/>
</g>
<g>
	<path class="st1" d="M427.5,52.7c1.1,10.6,10.5,18.3,21,17.2c10.6-1.1,18.3-10.5,17.2-21c-1.1-10.6-10.5-18.3-21-17.2
		C434.2,32.7,426.5,42.1,427.5,52.7z"/>
</g>
<g>
	<path d="M147,342.2l-1.5-1.4l13.5-67.7l2.2-0.3l29.3,54.1l-0.7,1.7L147,342.2z M160.7,276.8l-12.5,62.5l39.4-12.6L160.7,276.8z"/>
</g>
<g>
	<path class="st2" d="M288.6,379.2c0.1-32.3,16.9-45.7,30-48c13.1-2.3,26.9,4.5,35.2,17.5c12.5-25.3,29.3-49,51.6-58.7
		c22.3-9.7,50.7-1.1,61.9,25.1c8.2,19.2,5.8,42.5,3.2,64.1"/>
</g>
<g>
	<path d="M367.7,379.9l-1.8-1.6c1-1.1,25.4-27.1,43.3-22.1c7,2,11.9,8.3,14.8,18.9c2-4.9,5.9-13.9,12-22.7
		c12-17.2,26.8-25.7,42.6-24.5l-0.2,2.4c-36.2-2.8-53.4,48.8-53.6,49.3l-2.3-0.1c-2.4-12-7.1-19.1-14-21
		C392.1,353.8,368,379.6,367.7,379.9z"/>
</g>
<g>
	<g>
		<polygon class="st0" points="531.7,263.4 398.4,263.4 398.4,185.9 514.7,185.9 514.7,245.4 		"/>
	</g>
	<g>
		<g>
			<path class="st2" d="M434.2,224.3c0,5.2-4.2,9.4-9.4,9.4c-5.2,0-9.4-4.2-9.4-9.4c0-5.2,4.2-9.4,9.4-9.4
				C430,214.9,434.2,219.1,434.2,224.3z"/>
		</g>
		<g>
			<path class="st2" d="M466,224.7c0,5.2-4.2,9.4-9.4,9.4c-5.2,0-9.4-4.2-9.4-9.4c0-5.2,4.2-9.4,9.4-9.4
				C461.8,215.3,466,219.5,466,224.7z"/>
		</g>
		<g>
			<path class="st2" d="M497.9,225.1c0,5.2-4.2,9.4-9.4,9.4c-5.2,0-9.4-4.2-9.4-9.4c0-5.2,4.2-9.4,9.4-9.4
				C493.7,215.7,497.9,219.9,497.9,225.1z"/>
		</g>
	</g>
</g>
</svg>
