<?xml version="1.0" encoding="utf-8"?>
<!-- Generator: Adobe Illustrator 25.0.0, SVG Export Plug-In . SVG Version: 6.00 Build 0)  -->
<svg version="1.1" id="Layer_1" xmlns:v="https://vecta.io/nano"
	 xmlns="http://www.w3.org/2000/svg" xmlns:xlink="http://www.w3.org/1999/xlink" x="0px" y="0px" viewBox="0 0 619.6 411.4"
	 style="enable-background:new 0 0 619.6 411.4;" xml:space="preserve">
<style type="text/css">
	.st0{fill:#6987F3;}
	.st1{fill:#FF8A5B;}
	.st2{fill:#FFFFFF;}
	.st3{fill:#BEE9E8;}
	.st4{fill:#DACC3E;}
</style>
<g>
	<defs>
		<path id="SVGID_1_" d="M60.2,398.6c-40.2-44.7-50.8-106-37-142.9c10.6-28.2,39.9-49.2,70.1-48.9c24,0.3,46.2,13.6,70.2,14.6
			c36,1.5,67.4-25,87.9-54.6S285.6,103,309,75.6c45.8-53.5,128-71.9,192.2-43.1c62.4,28,102.5,95.7,105.2,164
			s-35.7,153.8-84.2,202.1"/>
	</defs>
	<clipPath id="SVGID_2_">
		<use xlink:href="#SVGID_1_"  style="overflow:visible;"/>
	</clipPath>
</g>
<path class="st0" d="M107.6,85.8H245v153.9H107.6V85.8z"/>
<path class="st1" d="M107.6,85.8H245v17.8H107.6V85.8z"/>
<path class="st2" d="M162.1,199.2c-4.5,0.1-8.8-1.3-12.4-3.9l1.6-2.2c7.7,5.7,19.9,4,26.8-3.6c6.1-6.7,7.9-17.2,4.7-26.7
	c-7.2,2.9-14.9,4.2-22.6,3.8c-5.8-0.4-13.9-2-19.2-7.8c-4.8-5.3-6.3-14.6-0.8-20.1s14.9-4.2,21.8-1c10.3,4.8,18.3,12.6,22.2,21.6
	c13.4-6.2,24.4-18,28.5-32.2l2.6,0.8c-4.3,15.1-15.9,27.5-30.2,34c3.5,10.4,1.5,22.1-5.2,29.6C175.5,196.4,169,199.2,162.1,199.2
	L162.1,199.2z M150.5,137.6c-3-0.2-6,0.9-8.2,3c-4.3,4.4-3,12.1,0.9,16.4c4.7,5.1,12,6.6,17.3,6.9c7.3,0.4,14.6-0.8,21.4-3.6
	c-3.7-8.4-11.2-15.7-20.9-20.1C157.7,138.6,154.1,137.7,150.5,137.6L150.5,137.6z"/>
<g>
	<path class="st3" d="M333.6,172.3l-33.5,197.9c0,0,83.8-36.7,149.6,0L487.3,172C487.3,172,417.2,119.9,333.6,172.3L333.6,172.3z"/>
	<path class="st3" d="M179.8,172.7L147,370.2c0,0,87.3-36.7,153.2,0l33.5-197.9C333.6,172.3,263.5,120.2,179.8,172.7L179.8,172.7z"
		/>
</g>
<path d="M103.8,337.7c-15.9,0-29.5-11.6-31.7-27.4s7.5-30.8,22.8-35.2s31.5,3.1,38,17.7c6.5,14.5,1.3,31.6-12.2,40.1
	C115.7,336,109.8,337.7,103.8,337.7L103.8,337.7z M103.7,276.6c-16.1,0-29.2,13.1-29.1,29.2c0,8.9,4,17.2,11,22.7
	c9.7,7.7,23.2,8.5,33.7,1.9l0,0c13.7-8.5,17.8-26.5,9.3-40.2C123.2,281.8,113.8,276.6,103.7,276.6z"/>
<circle class="st4" cx="73.4" cy="293.7" r="20.1"/>
<path d="M330.7,145.5l-2-1.5l9.1-46.9l2.1-0.9l35.6,22.2l-0.1,2.4L330.7,145.5z M340.1,99.6l-8.1,42.1l40.2-22.2L340.1,99.6z"/>
<path class="st0" d="M442.9,110.4c-1.3,14.3-0.5,26.6,3.9,40.3c1.4,4.5,3.6,8.7,6.5,12.5l10.2-7.5l-6.7,11.7
	c5.6,5.7,12.7,9.7,20.6,10.4c10.2-26-2.6-55.3-28.5-65.5C446.9,111.6,444.9,110.9,442.9,110.4L442.9,110.4z"/>
<path class="st1" d="M546.6,98.9l-13,3.2l12.6,2.2l-0.5,3.7c-1.8,9.4-5.3,18.7-11.6,25.9s-17.1,12.9-26.6,12.9
	c-7.5-29.9,9.8-60.3,39.2-69.3C546.6,84.1,547,91.7,546.6,98.9z"/>
<path d="M483.2,269.1l-2.7-0.2c5.7-68.8-6.4-101.5-20.3-126.5l2.4-1.3C486.4,184,486.6,228,483.2,269.1z M491,267.2
	c-5.3-42.1,5.5-112.1,32.8-156.4l2.3,1.4c-26.9,43.8-37.6,113-32.4,154.6L491,267.2z"/>
<g>
	<ellipse class="st4" cx="487.2" cy="325.7" rx="83.5" ry="72.9"/>
	<path class="st4" d="M504.9,269.1h-35.4v-31.8h35.4V269.1z"/>
</g>
<g>
	<path class="st2" d="M363.3,212.6l52,16.9L379,265.8L363.3,212.6L363.3,212.6z"/>
	<path class="st2" d="M384.9,245.3l9.9-9.9l21.2,21.2l-9.9,9.9L384.9,245.3z"/>
</g>
<path d="M302.3,370.1l34.1-198.7l2.7,0.5L305,370.6L302.3,370.1z"/>
<path class="st1" d="M125.7,398.6c0.1-28.8,15.1-40.7,26.7-42.8s24,4,31.4,15.6c11.1-22.6,26.1-43.7,46-52.3
	c21.1-9.2,45.6,0.5,54.8,21.6c0.1,0.3,0.2,0.5,0.3,0.8c7.3,17.1,5.2,37.9,2.9,57.1"/>
<path d="M359.8,399.3l-2-1.9c1-1.1,24.9-26.6,42.5-21.7c6.8,1.9,11.6,8,14.4,18.1c5.1-12.5,22.3-48.1,53.3-45.7l-0.2,2.7
	c-35.2-2.7-52,47.5-52.1,48l-2.6-0.1c-2.4-11.7-6.9-18.5-13.5-20.4C383.6,374,360.1,399.1,359.8,399.3L359.8,399.3z M200.4,230.8
	l-2.3-1.5c5.5-8.2,12.9-14.9,21.6-19.6c4.7-2.6,8.4-3,11.4-1.4c3.3,1.8,4.2,5.3,5.1,8.7c0.6,2.4,1.2,4.7,2.6,6.4
	c2.4,2.8,7,3,10.4,1.9c2.6-1,5.2-2.2,7.5-3.8c1.2-0.7,2.4-1.4,3.6-2.1c5.1-2.7,9.6-3.5,13.4-2.2c2,0.8,3.9,1.9,5.5,3.2
	c1.3,1,2.7,1.9,4.1,2.6c1.8,0.7,3.9,0.6,5.5-0.5c0.7-0.4,1.1-1.2,1.1-2l2.7-0.1c0.1,1.8-0.8,3.4-2.3,4.4c-2.4,1.6-5.5,1.8-8.2,0.7
	c-1.6-0.8-3.2-1.7-4.6-2.9c-1.4-1.2-3.1-2.1-4.8-2.8c-3.1-1-6.9-0.4-11.2,2c-1.2,0.6-2.4,1.4-3.5,2c-2.5,1.6-5.2,3-8.1,4
	c-4,1.3-9.9,1.4-13.4-2.7c-1.8-2.1-2.5-4.8-3.2-7.5c-0.8-3.1-1.5-5.8-3.8-7c-2.1-1.1-4.9-0.7-8.8,1.4
	C212.7,216.6,205.7,223,200.4,230.8L200.4,230.8z"/>
<path class="st4" d="M287.5,285.3H186.9l4.2-23.4h100.6L287.5,285.3z"/>
<path d="M548.3,290.9c-8.2,0-14.9-6.6-15-14.9c0-6.7,4.4-12.5,10.8-14.4c7.9-2.3,16.2,2.3,18.5,10.2c1.8,6.4-0.8,13.2-6.4,16.8l0,0
	C553.8,290.1,551,290.9,548.3,290.9z M548.3,263.8c-6.7,0-12.2,5.5-12.2,12.2c0,3.7,1.7,7.2,4.6,9.5c4,3.2,9.7,3.6,14.1,0.8l0,0
	c5.7-3.6,7.4-11.1,3.8-16.8c-1.7-2.7-4.4-4.7-7.6-5.4C550.1,263.9,549.2,263.8,548.3,263.8L548.3,263.8z"/>
</svg>
