<?xml version="1.0" encoding="utf-8"?>
<!-- Generator: Adobe Illustrator 25.0.0, SVG Export Plug-In . SVG Version: 6.00 Build 0)  -->
<svg version="1.1" id="Layer_1" xmlns:v="https://vecta.io/nano"
	 xmlns="http://www.w3.org/2000/svg" xmlns:xlink="http://www.w3.org/1999/xlink" x="0px" y="0px" viewBox="0 0 619.6 411.4"
	 style="enable-background:new 0 0 619.6 411.4;" xml:space="preserve">
<style type="text/css">
	.st0{fill:#F8C49E;}
	.st1{fill:#FF8A5B;}
	.st2{fill:#DACC3E;}
	.st3{fill:#6987F3;}
	.st4{fill:#66D7D1;}
	.st5{fill:#B77548;}
</style>
<g>
	<g>
		<g>
			<path d="M398.3,171.3c-4.9,14.9-14.5,27.8-24.1,40.1c-9.6,12.4-19.6,24.9-25.4,39.4c-5.8,14.6-6.9,31.9,1,45.5
				c10.2,17.5,33.9,24.3,53.3,18.5c19.4-5.8,34.5-22.1,42.9-40.6c12.4,7.8,28.7,12.1,43.4,12.2c14.6,0.1,29.7-5.5,39.1-16.8
				c9.4-11.2,12.2-28.2,5.1-41c-7.9-14.3-25-20.3-39.2-28.4c-23-13.1-41.2-34.7-50.2-59.6"/>
		</g>
		<g>
			<path d="M107.7,365.2c-14.5-5.5-24.6-20.5-25.5-35.8c-2.5-1.3-4.8-2.9-7-5c-5.2-4.9-8.8-11.2-11.7-16.7l2.1-1.1
				c2.7,5.3,6.2,11.4,11.2,16.1c1.7,1.6,3.4,2.9,5.3,3.9c0-2.2,0.3-4.5,0.7-6.7c1-4.8,2.8-8.7,5.4-11.6c3.2-3.5,7.8-5.4,12-4.9
				c3.3,0.4,6.2,2.4,8.2,5.4c2.2,3.4,3,7.6,2,11.2c-1.8,6.6-8.7,11.7-16.2,12c-3.1,0.1-6.4-0.4-9.5-1.7c1.3,14,10.7,27.4,23.9,32.5
				L107.7,365.2z M84.5,327.8c3.1,1.4,6.4,2.1,9.5,1.9c6.6-0.3,12.5-4.6,14-10.3c0.8-3,0.2-6.5-1.7-9.3c-1.6-2.5-4-4-6.5-4.4
				c-3.4-0.5-7.2,1.1-9.9,4.1c-2.3,2.5-3.9,6-4.8,10.5C84.7,322.8,84.5,325.3,84.5,327.8z"/>
		</g>
		<g>
			<polygon class="st0" points="203.8,368 140.4,368 153.2,286.3 197.1,286.3 197.9,295.9 200.3,325.5 			"/>
		</g>
		<g>
			<path d="M200.3,325.5c-6.3,0-12.5-1.1-18.4-3.4c-9.7-3.8-18.2-10.7-23.8-19.4c12.8-2,25.5-4.5,38.3-6.5c0.5-0.1,1-0.1,1.4-0.2
				L200.3,325.5z"/>
		</g>
		<g>
			<path class="st1" d="M66.8,387.7c0,0,16.9-27.8,33.8-31.8c16.9-4.1,43.4-10.6,43.4-10.6s30.7,38.7,58.3,4.3
				c0,0,35.7,2.9,43.2,8.3c7.4,5.4,26.1,29.8,26.1,29.8H66.8z"/>
		</g>
		<g>
			<path d="M265.8,388.9H52.5l-1.2-1.2V91.1l1.2-1.2h213.3l1.2,1.2v296.6L265.8,388.9z M53.7,386.5h210.9V92.3H53.7V386.5z"/>
		</g>
		<g>
			<rect x="52.5" y="111.7" width="213.3" height="2.4"/>
		</g>
		<g>
			<g>
				<path class="st1" d="M77.4,102.4c0,3.1-2.5,5.7-5.7,5.7c-3.1,0-5.7-2.5-5.7-5.7s2.5-5.7,5.7-5.7C74.9,96.8,77.4,99.3,77.4,102.4
					z"/>
			</g>
			<g>
				<path class="st2" d="M95.8,102.4c0,3.1-2.5,5.7-5.7,5.7c-3.1,0-5.7-2.5-5.7-5.7s2.5-5.7,5.7-5.7C93.2,96.8,95.8,99.3,95.8,102.4
					z"/>
			</g>
			<g>
				<path class="st3" d="M114.1,102.4c0,3.1-2.5,5.7-5.7,5.7c-3.1,0-5.7-2.5-5.7-5.7s2.5-5.7,5.7-5.7
					C111.6,96.8,114.1,99.3,114.1,102.4z"/>
			</g>
		</g>
		<g>
			<path class="st0" d="M231.1,268.9c-1.9,15.4-11.6,29.5-25.2,36.9c-13.6,7.4-30.8,7.7-44.8,1.2c-14-6.6-24.6-20-27.9-35.1
				c-3.1,6.1-9.6,8.2-16.3,7.1c-6.7-1.2-12.4-6.3-15-12.7c-1.9-4.8-2.1-10.4-0.2-15.2c1.9-4.8,6-8.9,10.9-10.4
				c5-1.5,11-1.1,14.8,2.4c-0.2-5.8,0.4-11.7,1.8-17.3c0.3-1,0.5-2,0.9-3c1.2-3.9,2.8-7.7,4.9-11.3c1.1-2,2.4-3.9,3.7-5.7
				c8-10.6,20.1-18,33.3-19.7c1.7-0.2,3.4-0.3,5.1-0.3c11.6-0.1,23.2,4.2,31.4,12.3c1.2,1.1,2.2,2.3,3.2,3.5c0,0.1,0.1,0.1,0.1,0.2
				c0.6,0.8,1.2,1.5,1.8,2.3c1.4,2,2.6,4,3.8,6.2c3.8,7,6.3,14.9,8.6,22.6C229.4,244.5,232.6,256.7,231.1,268.9z"/>
		</g>
		<g>
			<path d="M122.6,265.2c-1.2-1.9-3.1-3.3-5.2-3.9c-2.2-0.6-4.5-0.3-6.4,0.8l-1.2-2.1c2.5-1.4,5.5-1.8,8.2-1.1
				c1.4,0.4,2.8,1,3.9,1.9l-1.3-9.9l2.4-0.3l1.8,13.7L122.6,265.2z"/>
		</g>
		<g>
			<path d="M193.3,268.1c-0.5,0-0.9-0.1-1.4-0.2l0.8-2.3c0.7,0.2,1.3,0,1.7-0.2c0.6-0.3,0.9-0.8,1-1c0.2-1,0-2.1-0.2-3.1l-4-18.9
				l2.3-0.5l4,18.9c0.3,1.2,0.6,2.7,0.2,4.2c-0.2,1-1.1,2-2.2,2.6C194.9,267.9,194.1,268.1,193.3,268.1z"/>
		</g>
		<g>
			<path d="M186.7,278c-2.4,0-4.7-0.8-6.6-2.3c-2.3-1.8-3.7-4.6-3.9-7.5l2.4-0.1c0.1,2.2,1.2,4.4,3,5.8c1.7,1.4,4.1,2,6.3,1.7
				l0.4,2.4C187.8,278,187.3,278,186.7,278z"/>
		</g>
		<g>
			<path d="M175.5,246.2c0,1.7-0.9,3-2,3c-1.1,0-2-1.4-2-3s0.9-3,2-3C174.6,243.1,175.5,244.5,175.5,246.2z"/>
		</g>
		<g>
			<path d="M210.6,242.8c0,1.7-0.9,3-2,3c-1.1,0-2-1.4-2-3c0-1.7,0.9-3,2-3C209.7,239.8,210.6,241.1,210.6,242.8z"/>
		</g>
		<g>
			<path d="M169.2,237.2c-0.9,0.1-2.2,0.5-3.1,0.2c-1.8-0.6-2-2.4-0.6-3.7c1.5-1.3,3.9-1.9,5.8-2.2c1.3-0.2,3.2-0.5,4.4,0.2
				c1.2,0.7,1.6,2.1,1,3.4C175.4,237.8,171.6,236.9,169.2,237.2z"/>
		</g>
		<g>
			<path d="M210.5,234.2c1,0,2.2,0.1,3.1-0.3c1.7-0.8,1.6-2.7,0-3.7c-1.7-1.1-4.1-1.3-6-1.3c-1.3,0-3.3,0-4.4,0.9
				c-1,0.9-1.2,2.4-0.5,3.5C204.4,235.7,208.1,234.3,210.5,234.2z"/>
		</g>
		<g>
			<path class="st4" d="M250.8,177.2c-5.1,7-14.9,8.5-21.8,3.4c-7-5.1-8.5-14.9-3.4-21.8c5.1-7,14.9-8.5,21.8-3.4
				C254.4,160.4,255.9,170.2,250.8,177.2z"/>
		</g>
		<g>
			<path d="M264.2,179.3c-5.2,0-10.2-1.8-14.3-5.2c-4.5-3.8-7.3-9.2-7.8-15.1c-0.5-5.9,1.3-11.7,5.1-16.2c3.8-4.5,9.2-7.3,15.1-7.8
				c5.9-0.5,11.7,1.3,16.2,5.1l0,0c4.5,3.8,7.3,9.2,7.8,15.1c0.5,5.9-1.3,11.7-5.1,16.2c-3.8,4.5-9.2,7.3-15.1,7.8
				C265.5,179.2,264.8,179.3,264.2,179.3z M264.3,137.2c-0.6,0-1.2,0-1.7,0.1c-5.3,0.5-10.1,2.9-13.5,7c-3.4,4.1-5,9.2-4.6,14.5
				c0.5,5.3,2.9,10.1,7,13.5c4.1,3.4,9.2,5,14.5,4.6c5.3-0.5,10.1-2.9,13.5-7c3.4-4.1,5-9.2,4.6-14.5c-0.5-5.3-2.9-10.1-7-13.5
				C273.4,138.8,268.9,137.2,264.3,137.2z"/>
		</g>
		<g>
			<polygon class="st5" points="405.8,288.3 468.9,281.8 447.8,201.9 404.2,206.4 404.4,216.1 405,245.7 			"/>
		</g>
		<g>
			<path d="M405,245.7c6.2-0.6,12.4-2.4,17.9-5.3c9.3-4.8,17-12.5,21.7-21.8c-12.9-0.7-25.8-1.9-38.8-2.5c-0.5,0-1-0.1-1.5-0.1
				L405,245.7z"/>
		</g>
		<g>
			<path class="st5" d="M496.9,176.7c-1.9,6.6-7,12.3-13.6,14.1c-6.6,1.8-13.3,0.4-17-5.4c-1.8,15.4-10.9,29.8-24.2,37.8
				c-13.3,8-30.3,9.4-44.7,3.4c-14.3-5.9-25.5-19-28.9-34.1c-2.7-12-0.8-24.5,1.5-36.5c0.7-3.6,1.4-7.2,2.2-10.7
				c0.3-1.3,0.6-2.6,1-3.8c0.4-1.3,0.7-2.5,1.2-3.8c0.7-2,1.4-4.1,2.3-6c1.8-4.3,4.2-8.4,7.2-12c5.4-6.6,12.9-11.3,21.1-13.7
				c0.3-0.1,0.5-0.2,0.8-0.2l0,0c2.4-0.7,4.8-1.1,7.3-1.4c0.4-0.1,0.8-0.1,1.2-0.1c1.6-0.1,3.1-0.2,4.7-0.1
				c13.2,0.3,26.1,6.5,35.1,16.2c6.6,7.1,11.2,16,13.5,25.5c0.6,2.3,1,4.7,1.3,7c0.1,1.1,0.2,2.2,0.3,3.4l0.5-0.5
				c3.5-3.5,9.2-4.4,14-3.4c5.1,1,9.6,4.6,11.9,9.2C497.9,166.1,498.3,171.7,496.9,176.7z"/>
		</g>
		<g>
			<path d="M476.1,177.8l-2.3-0.5l0.4-13.8l2.4,0.1l-0.3,10c1.1-1,2.3-1.8,3.7-2.3c2.7-1,5.7-0.9,8.3,0.2l-1,2.2
				c-2-0.9-4.4-1-6.5-0.2C478.8,174.1,477.1,175.7,476.1,177.8z"/>
		</g>
		<g>
			<path d="M405.6,188c-0.6,0-1.3-0.1-1.9-0.4c-1.2-0.5-2.1-1.4-2.4-2.4c-0.5-1.4-0.3-3-0.2-4.2l2.1-19.2l2.4,0.3l-2.1,19.2
				c-0.1,1.1-0.2,2.2,0.1,3.1c0.1,0.2,0.5,0.7,1.1,0.9c0.4,0.2,1,0.3,1.7,0l1,2.2C406.8,187.8,406.2,188,405.6,188z"/>
		</g>
		<g>
			<path d="M412.6,197.2c-0.2,0-0.4,0-0.5,0l0.1-2.4c2.2,0.1,4.5-0.7,6.1-2.3c1.6-1.6,2.5-3.8,2.4-6.1l2.4-0.1
				c0.1,2.9-1,5.8-3.1,7.9C418,196.1,415.3,197.2,412.6,197.2z"/>
		</g>
		<g>
			<path d="M421.6,164.3c0.2,1.7,1.2,2.9,2.3,2.8c1.1-0.1,1.9-1.6,1.7-3.2c-0.2-1.7-1.2-2.9-2.3-2.8
				C422.2,161.2,421.4,162.6,421.6,164.3z"/>
		</g>
		<g>
			<path d="M386.3,164.5c0.2,1.7,1.2,2.9,2.3,2.8c1.1-0.1,1.9-1.6,1.7-3.2c-0.2-1.7-1.2-2.9-2.3-2.8
				C386.9,161.4,386.1,162.9,386.3,164.5z"/>
		</g>
		<g>
			<path d="M384.7,155.5c-1,0.1-2.4,0.3-3.4,0.1c-1.9-0.5-1.9-1.9-0.2-2.9c1.8-1,4.4-1.4,6.5-1.6c1.4-0.2,3.6-0.4,4.8,0.2
				c1.2,0.6,1.4,1.7,0.7,2.6C391.4,156.1,387.3,155.3,384.7,155.5z"/>
		</g>
		<g>
			<path d="M427.4,154.9c1,0.1,2.4,0.3,3.4,0c1.9-0.5,1.8-1.9,0.1-2.9c-1.8-1-4.5-1.3-6.6-1.4c-1.4-0.1-3.6-0.3-4.8,0.4
				c-1.2,0.6-1.4,1.7-0.6,2.7C420.7,155.6,424.7,154.8,427.4,154.9z"/>
		</g>
		<g>
			<path d="M515,184.1l-1.9-1.1l6.8-46.7l1.9-0.8l27.4,19.6l0,1.9L515,184.1z M522,138.6l-6.1,41.8l30.6-24.2L522,138.6z"/>
		</g>
		<g>
			<g>
				<path class="st1" d="M378.7,37.4c0,3.1-2.5,5.7-5.7,5.7c-3.1,0-5.7-2.5-5.7-5.7c0-3.1,2.5-5.7,5.7-5.7
					C376.2,31.8,378.7,34.3,378.7,37.4z"/>
			</g>
			<g>
				<path class="st2" d="M397.1,37.4c0,3.1-2.5,5.7-5.7,5.7c-3.1,0-5.7-2.5-5.7-5.7c0-3.1,2.5-5.7,5.7-5.7
					C394.5,31.8,397.1,34.3,397.1,37.4z"/>
			</g>
			<g>
				<path class="st3" d="M415.4,37.4c0,3.1-2.5,5.7-5.7,5.7s-5.7-2.5-5.7-5.7c0-3.1,2.5-5.7,5.7-5.7S415.4,34.3,415.4,37.4z"/>
			</g>
		</g>
		<g>
			<path d="M567.1,323.9H353.8l-1.2-1.2V26.1l1.2-1.2h213.3l1.2,1.2v296.6L567.1,323.9z M355,321.5h210.9V27.3H355V321.5z"/>
		</g>
		<g>
			<rect x="353.8" y="46.7" width="213.3" height="2.4"/>
		</g>
		<g>
			<path d="M212.2,199.8c-0.1,0.6-0.3,1.2-0.6,1.7c-1.6,3.5-5.7,5.8-9.6,6.7c-14.7,3.4-31,4.1-46.6,1.8c-6,13.4-15.6,25-27.9,33
				c-0.2-5.8,0.4-11.7,1.8-17.3c0.3-1,0.5-2,0.9-3c1.2-3.9,2.8-7.7,4.9-11.3c1.1-2,2.4-3.9,3.7-5.7c8-10.6,20.1-18,33.3-19.7
				c1.8-0.1,3.5-0.3,5.1-0.3c13.3-0.7,16.4,0.4,19.7,0.9c4.1,0.7,7.5,2,10.7,3.9C210.6,192.4,212.9,196.2,212.2,199.8z"/>
		</g>
		<g>
			<path d="M468.8,152.8c-12.3,0.3-25-4.5-34.3-12.7c-9.7-8.5-16.1-20.2-19.5-32.8c-8,16.7-23.5,29.9-41.6,34.2
				c0.4-1.3,0.7-2.5,1.2-3.8c0.7-2,1.4-4.1,2.3-6c1.8-4.3,4.2-8.4,7.2-12c5.4-6.6,12.9-11.3,21.1-13.7c0.3-0.1,0.5-0.2,0.8-0.2l0,0
				c2.4-0.7,4.8-1.1,7.3-1.4c0.4-0.1,0.8-0.1,1.2-0.1c1.6-0.1,3.1-0.2,4.7-0.1c13.2,0.3,26.1,6.5,35.1,16.2
				c6.6,7.1,11.2,16,13.5,25.5C468.1,148.1,468.5,150.4,468.8,152.8z"/>
		</g>
		<g>
			<path class="st2" d="M546.8,322.7c0,0-23.7-47.4-34.6-52.8c-10.8-5.4-48.5-7.5-48.5-7.5s-40.6,36.5-58.4,3.8
				c0,0-43.5,2.5-51.6,11.6c-8.1,9.1-26.9,45-26.9,45H546.8z"/>
		</g>
		<g>
			<path class="st3" d="M410.6,368.4c-3.1,6.9-7.1,13.3-11.8,19.3H297c-6.3-8-12.6-16.2-15.3-26c-2.7-10-0.7-22.2,7.7-28.3
				c5.7-4.2,13.7-4.9,20-1.8c6.3,3.1,10.7,9.8,11,16.8c1.4-16,7.3-32,18.6-43.4c11.3-11.4,28.5-17.5,44-13.5
				c15,3.9,26.9,16.7,31.5,31.6C419,337.8,416.9,354.2,410.6,368.4z"/>
		</g>
		<g>
			<path d="M333,388.3l-1.8-1.6c0.9-1,23.3-24.9,39.7-20.3c6.4,1.8,10.9,7.6,13.5,17.2c4.6-11.5,20.8-45.3,50-43l-0.2,2.4
				c-33.1-2.6-48.8,44.6-49,45.1l-2.3-0.1c-2.2-11-6.5-17.5-12.7-19.2C355.3,364.5,333.2,388.1,333,388.3z"/>
		</g>
	</g>
</g>
</svg>
