<?xml version="1.0" encoding="utf-8"?>
<!-- Generator: Adobe Illustrator 25.0.0, SVG Export Plug-In . SVG Version: 6.00 Build 0)  -->
<svg version="1.1" id="Layer_1" xmlns="http://www.w3.org/2000/svg" xmlns:xlink="http://www.w3.org/1999/xlink" x="0px" y="0px"
	 viewBox="0 0 1000 1000" style="enable-background:new 0 0 1000 1000;" xml:space="preserve">
<style type="text/css">
	.st0{fill:#FF8A5B;}
	.st1{fill:#DACC3E;}
	.st2{fill:#6987F3;}
	.st3{clip-path:url(#SVGID_2_);}
	.st4{fill:#B77548;}
	.st5{fill:#2156E8;stroke:#000000;stroke-miterlimit:10;}
	.st6{fill:#BEE9E8;}
	.st7{fill:#FFFFFF;}
</style>
<g>
	<path class="st0" d="M242.5,372.5c-13.5,0-24.5-11-24.5-24.5V247c0-13.5,11-24.5,24.5-24.5h101c13.5,0,24.5,11,24.5,24.5v101
		c0,13.5-11,24.5-24.5,24.5H242.5z"/>
	<path d="M343.5,223c13.2,0,24,10.8,24,24v101c0,13.2-10.8,24-24,24h-101c-13.2,0-24-10.8-24-24V247c0-13.2,10.8-24,24-24H343.5
		 M343.5,222h-101c-13.8,0-25,11.2-25,25v101c0,13.8,11.2,25,25,25h101c13.8,0,25-11.2,25-25V247C368.5,233.2,357.3,222,343.5,222
		L343.5,222z"/>
</g>
<g>
	<path class="st1" d="M582.5,777.5c-13.5,0-24.5-11-24.5-24.5V578c0-13.5,11-24.5,24.5-24.5h175c13.5,0,24.5,11,24.5,24.5v175
		c0,13.5-11,24.5-24.5,24.5H582.5z"/>
	<path d="M757.5,554c13.2,0,24,10.8,24,24v175c0,13.2-10.8,24-24,24h-175c-13.2,0-24-10.8-24-24V578c0-13.2,10.8-24,24-24H757.5
		 M757.5,553h-175c-13.8,0-25,11.2-25,25v175c0,13.8,11.2,25,25,25h175c13.8,0,25-11.2,25-25V578C782.5,564.2,771.3,553,757.5,553
		L757.5,553z"/>
</g>
<g>
	<path class="st2" d="M318,675.5c-13.5,0-24.5-11-24.5-24.5V323c0-13.5,11-24.5,24.5-24.5h328c13.5,0,24.5,11,24.5,24.5v328
		c0,13.5-11,24.5-24.5,24.5H318z"/>
	<path d="M646,299c13.2,0,24,10.8,24,24v328c0,13.2-10.8,24-24,24H318c-13.2,0-24-10.8-24-24V323c0-13.2,10.8-24,24-24H646 M646,298
		H318c-13.8,0-25,11.2-25,25v328c0,13.8,11.2,25,25,25h328c13.8,0,25-11.2,25-25V323C671,309.2,659.8,298,646,298L646,298z"/>
</g>
<g>
	<defs>
		<path id="SVGID_1_" d="M645.5,676h-328c-13.8,0-25-11.2-25-25V323c0-13.8,11.2-25,25-25h328c13.8,0,25,11.2,25,25v328
			C670.5,664.8,659.3,676,645.5,676z"/>
	</defs>
	<clipPath id="SVGID_2_">
		<use xlink:href="#SVGID_1_"  style="overflow:visible;"/>
	</clipPath>
	<g class="st3">
		<g>
			<g>
				<path d="M411.5,447.5c2.3,8.9-2.6,18.4-9.7,24.3c-7.1,5.9-16.1,8.8-24.8,11.9c-8.7,3-17.6,6.4-24.2,12.9
					c-11.1,10.8-13.2,28.9-6.5,42.8c6.7,13.9,21.1,23.3,36.4,25.6c15.2,2.3,31.1-1.8,44.3-9.7c13.2-7.9,24.1-19.4,33-31.9
					c7.2,15.5,19.8,30.9,36.7,33.3c16.9,2.3,35.1-5.5,44.1-20.1c9-14.6,7.5-35.1-4.3-47.5c-6-6.3-14.1-10.3-22-14.1
					c-7.9-3.7-16.1-7.5-22.4-13.5c-6.4-6-10.8-14.8-9.2-23.5"/>
			</g>
			<g>
				<path class="st2" d="M557.7,445.8c0,7.3-5.9,13.2-13.2,13.2c-7.3,0-13.2-5.9-13.2-13.2s5.9-13.2,13.2-13.2
					C551.8,432.5,557.7,438.5,557.7,445.8z"/>
			</g>
			<g>
				<path d="M565.2,472.5c-9.9,0-18-8.1-18-18c0-9.9,8.1-18,18-18c9.9,0,18,8.1,18,18C583.2,464.4,575.2,472.5,565.2,472.5z
					 M565.2,438.5c-8.8,0-16,7.2-16,16c0,8.8,7.2,16,16,16c8.8,0,16-7.2,16-16C581.3,445.7,574.1,438.5,565.2,438.5z"/>
			</g>
			<g>
				<path d="M363.8,457l-27.6-14.9l36.8-23L363.8,457z M340,442l22.5,12.1l7.5-30.8L340,442z"/>
			</g>
			<g>
				<polygon class="st4" points="473.8,547 421.7,544.1 436,477.6 472,479.7 472.2,487.6 472.9,512 				"/>
			</g>
			<g>
				<path d="M472.9,512c-5.1-0.3-10.3-1.5-14.9-3.7c-7.8-3.6-14.4-9.6-18.7-17.1c10.6-1.1,21.2-2.5,31.8-3.6c0.4,0,0.8-0.1,1.2-0.1
					L472.9,512z"/>
			</g>
			<g>
				<path class="st4" d="M500.8,466.9c-2.2,12.5-10.9,23.7-22.4,29.1c-11.5,5.4-25.6,4.9-36.8-1.1c-11.2-6.1-19.3-17.6-21.3-30.1
					c-2.8,4.9-8.3,6.3-13.7,5.1c-5.5-1.3-9.9-5.8-11.7-11.1c-1.4-4.1-1.3-8.6,0.5-12.5c1.8-3.9,5.3-7,9.5-8c4-1,8.6-0.5,11.7,2.3
					l0.4,0.4c0-1.1,0.1-2.1,0.1-3.2c0.8-9.8,4.5-19.4,10.8-26.9c7-8.3,17.3-13.8,28.1-14.6c0,0,0.1,0,0.1,0c1.3-0.1,2.6-0.1,3.9-0.1
					c0.3,0,0.7,0,1,0.1c0.4,0,0.8,0.1,1.2,0.1c0.7,0.1,1.4,0.2,2.1,0.3c0.2,0,0.4,0,0.5,0.1c7.9,1.3,15.4,5.1,20.8,11.1
					c2.6,2.9,4.7,6.1,6.3,9.6c0.3,0.7,0.7,1.5,1,2.2c1.7,3.9,3,8.1,4.1,12.3c0.5,1.8,0.9,3.5,1.3,5.3
					C500.5,446.8,502.5,456.9,500.8,466.9z"/>
			</g>
			<g>
				<path d="M411.8,458.8c-0.9-1.6-2.4-2.9-4.1-3.4c-1.7-0.6-3.7-0.4-5.3,0.4l-0.9-1.7c2.1-1,4.6-1.2,6.8-0.5c1.2,0.4,2.2,1,3.2,1.8
					l-0.6-8.3l1.9-0.1l0.8,11.4L411.8,458.8z"/>
			</g>
			<g>
				<path d="M470,464.5c-0.4,0-0.9-0.1-1.3-0.3l0.7-1.8c0.6,0.2,1.1,0.1,1.4-0.1c0.5-0.2,0.8-0.6,0.9-0.8c0.2-0.8,0.1-1.7,0-2.6
					l-2.4-15.7l1.9-0.3l2.4,15.7c0.2,1,0.3,2.2,0,3.4c-0.2,0.8-1,1.6-1.9,2C471.1,464.4,470.6,464.5,470,464.5z"/>
			</g>
			<g>
				<path d="M464.4,472.4c-2.1,0-4.2-0.8-5.8-2.2c-1.8-1.6-2.8-4-2.8-6.3l1.9,0c0,1.8,0.8,3.7,2.2,4.9c1.4,1.2,3.3,1.9,5.1,1.7
					l0.2,1.9C464.9,472.3,464.7,472.4,464.4,472.4z"/>
			</g>
			<g>
				<path d="M485.1,444.5c-0.1,1.4-0.9,2.5-1.8,2.4c-0.9-0.1-1.6-1.2-1.5-2.6c0.1-1.4,0.9-2.5,1.8-2.4
					C484.5,442,485.2,443.2,485.1,444.5z"/>
			</g>
			<g>
				<path d="M456.6,446.2c-0.1,1.4-0.9,2.5-1.8,2.4c-0.9-0.1-1.6-1.2-1.5-2.6c0.1-1.4,0.9-2.5,1.8-2.4
					C456,443.6,456.7,444.8,456.6,446.2z"/>
			</g>
			<g>
				<path d="M486.1,437.1c0.9,0,2,0.2,2.8-0.1c1.5-0.5,1.5-1.6,0-2.4c-1.5-0.8-3.7-1-5.4-1.1c-1.2-0.1-3-0.2-3.9,0.4
					c-0.9,0.5-1.1,1.4-0.4,2.2C480.6,437.8,483.9,437,486.1,437.1z"/>
			</g>
			<g>
				<path d="M451,438.2c-0.9,0.1-2,0.3-2.8,0.1c-1.6-0.4-1.6-1.5-0.2-2.4c1.5-0.9,3.6-1.2,5.3-1.4c1.2-0.2,2.9-0.4,4,0.1
					c1,0.4,1.2,1.4,0.6,2.2C456.5,438.5,453.2,438,451,438.2z"/>
			</g>
			<g>
				<g>
					<path class="st5" d="M357.7,490.8l-7.7,1.1l7.1,2.1c-0.2,0.7-0.3,1.4-0.5,2.1c-1.6,5.3-4.2,10.4-8.3,14.2
						c-4.1,3.8-10.6,6.4-16.2,5.8c-1.2-8.4,1-17.3,5.9-24.2c4.9-6.9,12.6-11.8,20.9-13.4C358.6,482.2,358.3,486.6,357.7,490.8z"/>
				</g>
				<g>
					<path class="st0" d="M371.9,522.4c-2.7,7.9-6.1,14.2-11.7,20.4c-1.8,2-4,3.7-6.4,5.1l-3.6-6.4l0.7,7.8c-4.3,1.7-9,2.1-13.4,0.6
						c0.4-8.3,4.5-16.3,11-21.4C355,523.2,363.7,521,371.9,522.4z"/>
				</g>
				<g>
					<path d="M326.3,587.8l-1.9-0.1c0.6-21.6,11.2-42.2,28.3-55.3l1.2,1.5C337.2,546.7,326.9,566.8,326.3,587.8z"/>
				</g>
				<g>
					<path d="M319.4,586.6c-13.9-25.3-16.3-44.3-9.4-72.5l1.9,0.5c-6.4,26.2-4.6,44.3,7.2,67.3c-1-30.7,7.3-61.6,23.6-87.6l1.6,1
						c-16.9,26.9-25.1,59.1-23.1,90.8L319.4,586.6z"/>
				</g>
				<g>
					<ellipse class="st1" cx="323.3" cy="632.4" rx="48.4" ry="42.3"/>
				</g>
				<g>
					<rect x="313" y="581.1" class="st1" width="20.5" height="18.5"/>
				</g>
			</g>
			<g>
				<path d="M464.6,396.5c0,0.5,0,1-0.1,1.5c-0.7,11.6-6,22.8-14.7,30.5c-9.9,8.8-20.2,12.9-33.1,12.3c0-1.1,0.1-2.1,0.1-3.2
					c0.8-9.8,4.5-19.4,10.8-26.9c7-8.3,17.3-13.8,28.1-14.6c0,0,0.1,0,0.1,0c1.3-0.1,2.6-0.1,3.9-0.1c0.3,0,0.7,0,1,0.1
					c0.4,0,0.8,0.1,1.2,0.1c0.7,0.1,1.4,0.2,2.1,0.3C464.3,396.5,464.5,396.5,464.6,396.5z"/>
			</g>
			<g>
				<path d="M492.7,419.4c-6.2-0.3-12.4-2.4-17.3-6.2c-5-3.8-8.8-9.2-10.8-15.2c-0.2-0.5-0.3-1.1-0.5-1.6c0.2,0,0.4,0,0.5,0.1
					c7.9,1.3,15.4,5.1,20.8,11.1c2.6,2.9,4.7,6.1,6.3,9.6C492.1,417.9,492.4,418.6,492.7,419.4z"/>
			</g>
			<g>
				<path class="st6" d="M309.2,674.6c0,0,45.2-130.8,67.5-141C399,523.4,426,524,426,524s31.8,37.1,47.3,4.4c0,0,46.2-1.4,55.2,4.1
					c9,5.4,30.7,36.2,30.7,36.2l36.8-48.2l54.2,21.7l-54.1,132.6"/>
			</g>
			<g>
				<g>
					<polygon class="st0" points="612.2,641.8 469,641.8 526.3,674.6 669.5,674.6 					"/>
				</g>
				<g>
					<rect x="516.1" y="642.5" transform="matrix(0.4974 -0.8675 0.8675 0.4974 -309.409 778.3517)" width="1.9" height="27.3"/>
				</g>
				<g>
					<polygon class="st0" points="692.4,571.9 549.2,571.9 526.3,674.6 669.5,674.6 					"/>
				</g>
				<g>
					<rect x="485.1" y="622.3" transform="matrix(0.2176 -0.976 0.976 0.2176 -187.612 1012.5317)" width="105.2" height="1.9"/>
				</g>
				<g>
					<path class="st7" d="M622.4,623.3c0,7.2-5.9,13.1-13.1,13.1c-7.2,0-13.1-5.9-13.1-13.1c0-7.2,5.9-13.1,13.1-13.1
						C616.6,610.2,622.4,616,622.4,623.3z"/>
				</g>
				<g>
					<path d="M609.3,632.1c-0.2,0-0.3,0-0.5,0l0.1-1.9c1.8,0.1,3.6-0.5,5-1.7c1.4-1.2,2.2-2.9,2.3-4.7l1.9,0.1
						c-0.1,2.3-1.2,4.5-2.9,6.1C613.6,631.3,611.5,632.1,609.3,632.1z"/>
				</g>
			</g>
			<g>
				<path class="st7" d="M489.3,659.8c-2.4,5.3-5.5,10.2-9,14.8h-78.3c-4.8-6.1-9.7-12.5-11.7-20c-2.1-7.7-0.5-17,5.9-21.8
					c4.4-3.2,10.5-3.8,15.4-1.4c4.9,2.4,8.2,7.5,8.4,12.9c1.1-12.3,5.6-24.6,14.3-33.4c8.7-8.8,21.9-13.5,33.8-10.4
					c11.6,3,20.7,12.9,24.2,24.3C495.8,636.3,494.1,648.9,489.3,659.8z"/>
			</g>
			<g>
				<path d="M430.9,675.1c-0.2-0.2-21.1-22.6-35.4-18.5c-5.9,1.7-10,7.8-12.1,18.2l-1.9,0.1c-0.1-0.5-15-45.1-46.4-42.7l-0.2-1.9
					c13.7-1.1,26.4,6.2,36.8,21.1c5.4,7.7,8.8,15.6,10.5,19.8c2.4-9.3,6.7-14.8,12.8-16.5c6.5-1.8,14.8,0.8,24.7,8
					c7.2,5.2,12.6,11.1,12.7,11.1L430.9,675.1z"/>
			</g>
			<g>
				<polygon class="st4" points="650.3,542.1 656.9,510.7 644.9,502.3 608.7,505.9 596.1,520.4 				"/>
			</g>
			<g>
				<path class="st4" d="M596.1,520.4c0,0,24.7-59.4,33.8-56.7c6,1.8-2.4,28.3-2.4,28.3s18.1-27.1,24.7-22.9
					c6.6,4.2-14.5,32.5-14.5,32.5s13.3-12.1,18.7,1.2c5.4,13.3,1.6,20.9-4.8,16.9c-4.8-3-7.2-13.3-7.2-13.3"/>
			</g>
			<g>
				<path d="M654.7,521.8c-1,0-2.3-0.3-3.7-1.2c-5.1-3.2-7.6-13.4-7.7-13.9l1.9-0.4c0,0.1,2.4,9.9,6.8,12.7c1.2,0.8,3,1.5,4.3,0.4
					c2-1.7,2.6-7.5-0.9-16c-1.3-3.1-3.1-4.9-5.4-5.5c-5.3-1.2-11.7,4.5-11.7,4.6L637,501c0.3-0.3,7.2-6.5,13.5-5.1
					c3,0.7,5.2,2.9,6.8,6.6c3.4,8.4,3.6,15.6,0.3,18.3C657,521.3,656.1,521.8,654.7,521.8z"/>
			</g>
			<g>
				<path d="M628.2,492.6l-1.6-1.1c0-0.1,4.6-6.9,9.9-13.1c7.6-8.8,12.8-12.1,16.1-10.1l-1,1.6c-1-0.7-4.4-1-13.6,9.7
					C632.8,485.8,628.3,492.5,628.2,492.6z"/>
			</g>
			<g>
				<path d="M597,520.7l-1.8-0.7c0.1-0.1,6.3-15,13.5-29.4c13.4-26.7,18.7-28.6,21.4-27.8l-0.6,1.9c-1.1-0.3-5.9,0.6-19.1,26.8
					C603.2,505.7,597,520.6,597,520.7z"/>
			</g>
			<g>
				<path d="M623.3,528.1l-1.6-1.1c1.5-2.2,0.9-5.8-1.3-7.3l0.4-1.8c6.7-1.3,17.1-4.5,16.5-8c-0.1-0.6-0.4-1-1-1.4
					c-4.5-2.8-20.5,0.2-30.2,3l-0.5-1.9c1-0.3,25-7,31.8-2.7c1.1,0.7,1.7,1.6,1.9,2.7c0.9,5.5-11,8.7-16.2,9.8
					C624.8,521.8,625,525.5,623.3,528.1z"/>
			</g>
		</g>
	</g>
</g>
<g>
	<path d="M646,299c13.2,0,24,10.8,24,24v328c0,13.2-10.8,24-24,24H318c-13.2,0-24-10.8-24-24V323c0-13.2,10.8-24,24-24H646 M646,298
		H318c-13.8,0-25,11.2-25,25v328c0,13.8,11.2,25,25,25h328c13.8,0,25-11.2,25-25V323C671,309.2,659.8,298,646,298L646,298z"/>
</g>
</svg>
